<?xml version="1.0" encoding="UTF-8" ?>
<svg version="1.1" width="128" height="128" xmlns="http://www.w3.org/2000/svg" shape-rendering="crispEdges">
<rect x="48" y="16" width="4" height="4" fill="#000000" />
<rect x="52" y="16" width="4" height="4" fill="#000000" />
<rect x="56" y="16" width="4" height="4" fill="#000000" />
<rect x="60" y="16" width="4" height="4" fill="#000000" />
<rect x="64" y="16" width="4" height="4" fill="#000000" />
<rect x="68" y="16" width="4" height="4" fill="#000000" />
<rect x="72" y="16" width="4" height="4" fill="#000000" />
<rect x="76" y="16" width="4" height="4" fill="#000000" />
<rect x="8" y="20" width="4" height="4" fill="#000000" />
<rect x="12" y="20" width="4" height="4" fill="#000000" />
<rect x="40" y="20" width="4" height="4" fill="#000000" />
<rect x="44" y="20" width="4" height="4" fill="#000000" />
<rect x="48" y="20" width="4" height="4" fill="#C49410" />
<rect x="52" y="20" width="4" height="4" fill="#BD8C08" />
<rect x="56" y="20" width="4" height="4" fill="#BD8C08" />
<rect x="60" y="20" width="4" height="4" fill="#BD8C08" />
<rect x="64" y="20" width="4" height="4" fill="#BD8C08" />
<rect x="68" y="20" width="4" height="4" fill="#BD8C08" />
<rect x="72" y="20" width="4" height="4" fill="#BD8C08" />
<rect x="76" y="20" width="4" height="4" fill="#BD8C08" />
<rect x="80" y="20" width="4" height="4" fill="#000000" />
<rect x="84" y="20" width="4" height="4" fill="#000000" />
<rect x="112" y="20" width="4" height="4" fill="#000000" />
<rect x="116" y="20" width="4" height="4" fill="#000000" />
<rect x="4" y="24" width="4" height="4" fill="#000000" />
<rect x="8" y="24" width="4" height="4" fill="#D6A10D" />
<rect x="12" y="24" width="4" height="4" fill="#D6A10D" />
<rect x="16" y="24" width="4" height="4" fill="#000000" />
<rect x="20" y="24" width="4" height="4" fill="#000000" />
<rect x="24" y="24" width="4" height="4" fill="#000000" />
<rect x="28" y="24" width="4" height="4" fill="#000000" />
<rect x="32" y="24" width="4" height="4" fill="#000000" />
<rect x="36" y="24" width="4" height="4" fill="#000000" />
<rect x="40" y="24" width="4" height="4" fill="#C49410" />
<rect x="44" y="24" width="4" height="4" fill="#C49410" />
<rect x="48" y="24" width="4" height="4" fill="#C49410" />
<rect x="52" y="24" width="4" height="4" fill="#000000" />
<rect x="56" y="24" width="4" height="4" fill="#000000" />
<rect x="60" y="24" width="4" height="4" fill="#BD8C08" />
<rect x="64" y="24" width="4" height="4" fill="#BD8C08" />
<rect x="68" y="24" width="4" height="4" fill="#000000" />
<rect x="72" y="24" width="4" height="4" fill="#000000" />
<rect x="76" y="24" width="4" height="4" fill="#BD8C08" />
<rect x="80" y="24" width="4" height="4" fill="#BD8C08" />
<rect x="84" y="24" width="4" height="4" fill="#BD8C08" />
<rect x="88" y="24" width="4" height="4" fill="#000000" />
<rect x="92" y="24" width="4" height="4" fill="#000000" />
<rect x="96" y="24" width="4" height="4" fill="#000000" />
<rect x="100" y="24" width="4" height="4" fill="#000000" />
<rect x="104" y="24" width="4" height="4" fill="#000000" />
<rect x="108" y="24" width="4" height="4" fill="#000000" />
<rect x="112" y="24" width="4" height="4" fill="#BD8C08" />
<rect x="116" y="24" width="4" height="4" fill="#BD8C08" />
<rect x="120" y="24" width="4" height="4" fill="#000000" />
<rect x="8" y="28" width="4" height="4" fill="#000000" />
<rect x="12" y="28" width="4" height="4" fill="#D6A10D" />
<rect x="16" y="28" width="4" height="4" fill="#D6A10D" />
<rect x="20" y="28" width="4" height="4" fill="#D6A10D" />
<rect x="24" y="28" width="4" height="4" fill="#D6A10D" />
<rect x="28" y="28" width="4" height="4" fill="#C49410" />
<rect x="32" y="28" width="4" height="4" fill="#C49410" />
<rect x="36" y="28" width="4" height="4" fill="#C49410" />
<rect x="40" y="28" width="4" height="4" fill="#C49410" />
<rect x="44" y="28" width="4" height="4" fill="#000000" />
<rect x="48" y="28" width="4" height="4" fill="#000000" />
<rect x="60" y="28" width="4" height="4" fill="#000000" />
<rect x="64" y="28" width="4" height="4" fill="#000000" />
<rect x="76" y="28" width="4" height="4" fill="#000000" />
<rect x="80" y="28" width="4" height="4" fill="#000000" />
<rect x="84" y="28" width="4" height="4" fill="#A67D0C" />
<rect x="88" y="28" width="4" height="4" fill="#A67D0C" />
<rect x="92" y="28" width="4" height="4" fill="#A67D0C" />
<rect x="96" y="28" width="4" height="4" fill="#A67D0C" />
<rect x="100" y="28" width="4" height="4" fill="#A67D0C" />
<rect x="104" y="28" width="4" height="4" fill="#A67D0C" />
<rect x="108" y="28" width="4" height="4" fill="#A67D0C" />
<rect x="112" y="28" width="4" height="4" fill="#A67D0C" />
<rect x="116" y="28" width="4" height="4" fill="#000000" />
<rect x="12" y="32" width="4" height="4" fill="#000000" />
<rect x="16" y="32" width="4" height="4" fill="#000000" />
<rect x="20" y="32" width="4" height="4" fill="#000000" />
<rect x="24" y="32" width="4" height="4" fill="#D6A10D" />
<rect x="28" y="32" width="4" height="4" fill="#D6A10D" />
<rect x="32" y="32" width="4" height="4" fill="#000000" />
<rect x="36" y="32" width="4" height="4" fill="#000000" />
<rect x="40" y="32" width="4" height="4" fill="#000000" />
<rect x="56" y="32" width="4" height="4" fill="#000000" />
<rect x="60" y="32" width="4" height="4" fill="#BD8C08" />
<rect x="64" y="32" width="4" height="4" fill="#A67D0C" />
<rect x="68" y="32" width="4" height="4" fill="#000000" />
<rect x="84" y="32" width="4" height="4" fill="#000000" />
<rect x="88" y="32" width="4" height="4" fill="#000000" />
<rect x="92" y="32" width="4" height="4" fill="#000000" />
<rect x="96" y="32" width="4" height="4" fill="#A67D0C" />
<rect x="100" y="32" width="4" height="4" fill="#A67D0C" />
<rect x="104" y="32" width="4" height="4" fill="#000000" />
<rect x="108" y="32" width="4" height="4" fill="#000000" />
<rect x="112" y="32" width="4" height="4" fill="#000000" />
<rect x="24" y="36" width="4" height="4" fill="#000000" />
<rect x="28" y="36" width="4" height="4" fill="#000000" />
<rect x="56" y="36" width="4" height="4" fill="#000000" />
<rect x="60" y="36" width="4" height="4" fill="#D6A10D" />
<rect x="64" y="36" width="4" height="4" fill="#BD8C08" />
<rect x="68" y="36" width="4" height="4" fill="#000000" />
<rect x="96" y="36" width="4" height="4" fill="#000000" />
<rect x="100" y="36" width="4" height="4" fill="#000000" />
<rect x="24" y="40" width="4" height="4" fill="#000000" />
<rect x="28" y="40" width="4" height="4" fill="#000000" />
<rect x="56" y="40" width="4" height="4" fill="#000000" />
<rect x="60" y="40" width="4" height="4" fill="#D6A10D" />
<rect x="64" y="40" width="4" height="4" fill="#BD8C08" />
<rect x="68" y="40" width="4" height="4" fill="#000000" />
<rect x="96" y="40" width="4" height="4" fill="#000000" />
<rect x="100" y="40" width="4" height="4" fill="#000000" />
<rect x="20" y="44" width="4" height="4" fill="#000000" />
<rect x="32" y="44" width="4" height="4" fill="#000000" />
<rect x="56" y="44" width="4" height="4" fill="#000000" />
<rect x="60" y="44" width="4" height="4" fill="#D6A10D" />
<rect x="64" y="44" width="4" height="4" fill="#BD8C08" />
<rect x="68" y="44" width="4" height="4" fill="#000000" />
<rect x="92" y="44" width="4" height="4" fill="#000000" />
<rect x="104" y="44" width="4" height="4" fill="#000000" />
<rect x="16" y="48" width="4" height="4" fill="#CF9D15" opacity="0.635294" />
<rect x="20" y="48" width="4" height="4" fill="#000000" />
<rect x="24" y="48" width="4" height="4" fill="#CF9D15" opacity="0.635294" />
<rect x="28" y="48" width="4" height="4" fill="#CF9D15" opacity="0.635294" />
<rect x="32" y="48" width="4" height="4" fill="#000000" />
<rect x="36" y="48" width="4" height="4" fill="#CF9D15" opacity="0.635294" />
<rect x="56" y="48" width="4" height="4" fill="#000000" />
<rect x="60" y="48" width="4" height="4" fill="#D6A10D" />
<rect x="64" y="48" width="4" height="4" fill="#BD8C08" />
<rect x="68" y="48" width="4" height="4" fill="#000000" />
<rect x="88" y="48" width="4" height="4" fill="#CF9D15" opacity="0.635294" />
<rect x="92" y="48" width="4" height="4" fill="#000000" />
<rect x="96" y="48" width="4" height="4" fill="#CF9D15" opacity="0.635294" />
<rect x="100" y="48" width="4" height="4" fill="#CF9D15" opacity="0.635294" />
<rect x="104" y="48" width="4" height="4" fill="#000000" />
<rect x="108" y="48" width="4" height="4" fill="#CF9D15" opacity="0.635294" />
<rect x="12" y="52" width="4" height="4" fill="#CF9D15" opacity="0.635294" />
<rect x="16" y="52" width="4" height="4" fill="#000000" />
<rect x="20" y="52" width="4" height="4" fill="#000000" />
<rect x="24" y="52" width="4" height="4" fill="#000000" />
<rect x="28" y="52" width="4" height="4" fill="#000000" />
<rect x="32" y="52" width="4" height="4" fill="#000000" />
<rect x="36" y="52" width="4" height="4" fill="#000000" />
<rect x="40" y="52" width="4" height="4" fill="#CF9D15" opacity="0.635294" />
<rect x="56" y="52" width="4" height="4" fill="#000000" />
<rect x="60" y="52" width="4" height="4" fill="#D6A10D" />
<rect x="64" y="52" width="4" height="4" fill="#BD8C08" />
<rect x="68" y="52" width="4" height="4" fill="#000000" />
<rect x="84" y="52" width="4" height="4" fill="#CF9D15" opacity="0.635294" />
<rect x="88" y="52" width="4" height="4" fill="#000000" />
<rect x="92" y="52" width="4" height="4" fill="#000000" />
<rect x="96" y="52" width="4" height="4" fill="#000000" />
<rect x="100" y="52" width="4" height="4" fill="#000000" />
<rect x="104" y="52" width="4" height="4" fill="#000000" />
<rect x="108" y="52" width="4" height="4" fill="#000000" />
<rect x="112" y="52" width="4" height="4" fill="#CF9D15" opacity="0.635294" />
<rect x="12" y="56" width="4" height="4" fill="#CF9D15" opacity="0.635294" />
<rect x="16" y="56" width="4" height="4" fill="#000000" />
<rect x="20" y="56" width="4" height="4" fill="#D6A10D" />
<rect x="24" y="56" width="4" height="4" fill="#000000" />
<rect x="28" y="56" width="4" height="4" fill="#D6A10D" />
<rect x="32" y="56" width="4" height="4" fill="#000000" />
<rect x="36" y="56" width="4" height="4" fill="#000000" />
<rect x="40" y="56" width="4" height="4" fill="#CF9D15" opacity="0.635294" />
<rect x="56" y="56" width="4" height="4" fill="#000000" />
<rect x="60" y="56" width="4" height="4" fill="#D6A10D" />
<rect x="64" y="56" width="4" height="4" fill="#BD8C08" />
<rect x="68" y="56" width="4" height="4" fill="#000000" />
<rect x="84" y="56" width="4" height="4" fill="#CF9D15" opacity="0.635294" />
<rect x="88" y="56" width="4" height="4" fill="#000000" />
<rect x="92" y="56" width="4" height="4" fill="#D6A10D" />
<rect x="96" y="56" width="4" height="4" fill="#000000" />
<rect x="100" y="56" width="4" height="4" fill="#D6A10D" />
<rect x="104" y="56" width="4" height="4" fill="#000000" />
<rect x="108" y="56" width="4" height="4" fill="#000000" />
<rect x="112" y="56" width="4" height="4" fill="#CF9D15" opacity="0.635294" />
<rect x="8" y="60" width="4" height="4" fill="#CF9D15" opacity="0.635294" />
<rect x="12" y="60" width="4" height="4" fill="#000000" />
<rect x="16" y="60" width="4" height="4" fill="#D6A10D" />
<rect x="20" y="60" width="4" height="4" fill="#000000" />
<rect x="24" y="60" width="4" height="4" fill="#D6A10D" />
<rect x="28" y="60" width="4" height="4" fill="#000000" />
<rect x="32" y="60" width="4" height="4" fill="#D6A10D" />
<rect x="36" y="60" width="4" height="4" fill="#000000" />
<rect x="40" y="60" width="4" height="4" fill="#000000" />
<rect x="44" y="60" width="4" height="4" fill="#CF9D15" opacity="0.635294" />
<rect x="56" y="60" width="4" height="4" fill="#000000" />
<rect x="60" y="60" width="4" height="4" fill="#D6A10D" />
<rect x="64" y="60" width="4" height="4" fill="#BD8C08" />
<rect x="68" y="60" width="4" height="4" fill="#000000" />
<rect x="80" y="60" width="4" height="4" fill="#CF9D15" opacity="0.635294" />
<rect x="84" y="60" width="4" height="4" fill="#000000" />
<rect x="88" y="60" width="4" height="4" fill="#D6A10D" />
<rect x="92" y="60" width="4" height="4" fill="#000000" />
<rect x="96" y="60" width="4" height="4" fill="#D6A10D" />
<rect x="100" y="60" width="4" height="4" fill="#000000" />
<rect x="104" y="60" width="4" height="4" fill="#D6A10D" />
<rect x="108" y="60" width="4" height="4" fill="#000000" />
<rect x="112" y="60" width="4" height="4" fill="#000000" />
<rect x="116" y="60" width="4" height="4" fill="#CF9D15" opacity="0.635294" />
<rect x="8" y="64" width="4" height="4" fill="#CF9D15" opacity="0.635294" />
<rect x="12" y="64" width="4" height="4" fill="#000000" />
<rect x="16" y="64" width="4" height="4" fill="#000000" />
<rect x="20" y="64" width="4" height="4" fill="#000000" />
<rect x="24" y="64" width="4" height="4" fill="#000000" />
<rect x="28" y="64" width="4" height="4" fill="#000000" />
<rect x="32" y="64" width="4" height="4" fill="#000000" />
<rect x="36" y="64" width="4" height="4" fill="#000000" />
<rect x="40" y="64" width="4" height="4" fill="#000000" />
<rect x="44" y="64" width="4" height="4" fill="#CF9D15" opacity="0.635294" />
<rect x="56" y="64" width="4" height="4" fill="#000000" />
<rect x="60" y="64" width="4" height="4" fill="#D6A10D" />
<rect x="64" y="64" width="4" height="4" fill="#BD8C08" />
<rect x="68" y="64" width="4" height="4" fill="#000000" />
<rect x="80" y="64" width="4" height="4" fill="#CF9D15" opacity="0.635294" />
<rect x="84" y="64" width="4" height="4" fill="#000000" />
<rect x="88" y="64" width="4" height="4" fill="#000000" />
<rect x="92" y="64" width="4" height="4" fill="#000000" />
<rect x="96" y="64" width="4" height="4" fill="#000000" />
<rect x="100" y="64" width="4" height="4" fill="#000000" />
<rect x="104" y="64" width="4" height="4" fill="#000000" />
<rect x="108" y="64" width="4" height="4" fill="#000000" />
<rect x="112" y="64" width="4" height="4" fill="#000000" />
<rect x="116" y="64" width="4" height="4" fill="#CF9D15" opacity="0.635294" />
<rect x="12" y="68" width="4" height="4" fill="#000000" />
<rect x="16" y="68" width="4" height="4" fill="#D6A10D" />
<rect x="20" y="68" width="4" height="4" fill="#D6A10D" />
<rect x="24" y="68" width="4" height="4" fill="#C49410" />
<rect x="28" y="68" width="4" height="4" fill="#C49410" />
<rect x="32" y="68" width="4" height="4" fill="#BD8C08" />
<rect x="36" y="68" width="4" height="4" fill="#A67D0C" />
<rect x="40" y="68" width="4" height="4" fill="#000000" />
<rect x="56" y="68" width="4" height="4" fill="#000000" />
<rect x="60" y="68" width="4" height="4" fill="#D6A10D" />
<rect x="64" y="68" width="4" height="4" fill="#BD8C08" />
<rect x="68" y="68" width="4" height="4" fill="#000000" />
<rect x="84" y="68" width="4" height="4" fill="#000000" />
<rect x="88" y="68" width="4" height="4" fill="#C49410" />
<rect x="92" y="68" width="4" height="4" fill="#C49410" />
<rect x="96" y="68" width="4" height="4" fill="#C49410" />
<rect x="100" y="68" width="4" height="4" fill="#C49410" />
<rect x="104" y="68" width="4" height="4" fill="#BD8C08" />
<rect x="108" y="68" width="4" height="4" fill="#A67D0C" />
<rect x="112" y="68" width="4" height="4" fill="#000000" />
<rect x="16" y="72" width="4" height="4" fill="#000000" />
<rect x="20" y="72" width="4" height="4" fill="#C49410" />
<rect x="24" y="72" width="4" height="4" fill="#BD8C08" />
<rect x="28" y="72" width="4" height="4" fill="#BD8C08" />
<rect x="32" y="72" width="4" height="4" fill="#A67D0C" />
<rect x="36" y="72" width="4" height="4" fill="#000000" />
<rect x="56" y="72" width="4" height="4" fill="#000000" />
<rect x="60" y="72" width="4" height="4" fill="#D6A10D" />
<rect x="64" y="72" width="4" height="4" fill="#BD8C08" />
<rect x="68" y="72" width="4" height="4" fill="#000000" />
<rect x="88" y="72" width="4" height="4" fill="#000000" />
<rect x="92" y="72" width="4" height="4" fill="#C49410" />
<rect x="96" y="72" width="4" height="4" fill="#BD8C08" />
<rect x="100" y="72" width="4" height="4" fill="#BD8C08" />
<rect x="104" y="72" width="4" height="4" fill="#A67D0C" />
<rect x="108" y="72" width="4" height="4" fill="#000000" />
<rect x="20" y="76" width="4" height="4" fill="#000000" />
<rect x="24" y="76" width="4" height="4" fill="#000000" />
<rect x="28" y="76" width="4" height="4" fill="#000000" />
<rect x="32" y="76" width="4" height="4" fill="#000000" />
<rect x="56" y="76" width="4" height="4" fill="#000000" />
<rect x="60" y="76" width="4" height="4" fill="#D6A10D" />
<rect x="64" y="76" width="4" height="4" fill="#BD8C08" />
<rect x="68" y="76" width="4" height="4" fill="#000000" />
<rect x="92" y="76" width="4" height="4" fill="#000000" />
<rect x="96" y="76" width="4" height="4" fill="#000000" />
<rect x="100" y="76" width="4" height="4" fill="#000000" />
<rect x="104" y="76" width="4" height="4" fill="#000000" />
<rect x="56" y="80" width="4" height="4" fill="#000000" />
<rect x="60" y="80" width="4" height="4" fill="#D6A10D" />
<rect x="64" y="80" width="4" height="4" fill="#BD8C08" />
<rect x="68" y="80" width="4" height="4" fill="#000000" />
<rect x="28" y="84" width="4" height="4" fill="#000000" />
<rect x="32" y="84" width="4" height="4" fill="#000000" />
<rect x="56" y="84" width="4" height="4" fill="#000000" />
<rect x="60" y="84" width="4" height="4" fill="#D6A10D" />
<rect x="64" y="84" width="4" height="4" fill="#BD8C08" />
<rect x="68" y="84" width="4" height="4" fill="#000000" />
<rect x="24" y="88" width="4" height="4" fill="#000000" />
<rect x="28" y="88" width="4" height="4" fill="#EBB113" />
<rect x="32" y="88" width="4" height="4" fill="#EBB113" />
<rect x="36" y="88" width="4" height="4" fill="#000000" />
<rect x="56" y="88" width="4" height="4" fill="#000000" />
<rect x="60" y="88" width="4" height="4" fill="#D6A10D" />
<rect x="64" y="88" width="4" height="4" fill="#BD8C08" />
<rect x="68" y="88" width="4" height="4" fill="#000000" />
<rect x="84" y="88" width="4" height="4" fill="#000000" />
<rect x="88" y="88" width="4" height="4" fill="#000000" />
<rect x="96" y="88" width="4" height="4" fill="#000000" />
<rect x="100" y="88" width="4" height="4" fill="#000000" />
<rect x="12" y="92" width="4" height="4" fill="#000000" />
<rect x="16" y="92" width="4" height="4" fill="#000000" />
<rect x="24" y="92" width="4" height="4" fill="#000000" />
<rect x="28" y="92" width="4" height="4" fill="#000000" />
<rect x="32" y="92" width="4" height="4" fill="#D6A10D" />
<rect x="36" y="92" width="4" height="4" fill="#000000" />
<rect x="40" y="92" width="4" height="4" fill="#000000" />
<rect x="52" y="92" width="4" height="4" fill="#000000" />
<rect x="56" y="92" width="4" height="4" fill="#000000" />
<rect x="60" y="92" width="4" height="4" fill="#D6A10D" />
<rect x="64" y="92" width="4" height="4" fill="#BD8C08" />
<rect x="68" y="92" width="4" height="4" fill="#000000" />
<rect x="72" y="92" width="4" height="4" fill="#000000" />
<rect x="80" y="92" width="4" height="4" fill="#000000" />
<rect x="84" y="92" width="4" height="4" fill="#EBB113" />
<rect x="88" y="92" width="4" height="4" fill="#D6A10D" />
<rect x="92" y="92" width="4" height="4" fill="#000000" />
<rect x="96" y="92" width="4" height="4" fill="#EBB113" />
<rect x="100" y="92" width="4" height="4" fill="#D6A10D" />
<rect x="104" y="92" width="4" height="4" fill="#000000" />
<rect x="108" y="92" width="4" height="4" fill="#000000" />
<rect x="4" y="96" width="4" height="4" fill="#000000" />
<rect x="8" y="96" width="4" height="4" fill="#000000" />
<rect x="12" y="96" width="4" height="4" fill="#EBB113" />
<rect x="16" y="96" width="4" height="4" fill="#D6A10D" />
<rect x="20" y="96" width="4" height="4" fill="#000000" />
<rect x="24" y="96" width="4" height="4" fill="#EBB113" />
<rect x="28" y="96" width="4" height="4" fill="#D6A10D" />
<rect x="32" y="96" width="4" height="4" fill="#000000" />
<rect x="36" y="96" width="4" height="4" fill="#EBB113" />
<rect x="40" y="96" width="4" height="4" fill="#D6A10D" />
<rect x="44" y="96" width="4" height="4" fill="#000000" />
<rect x="48" y="96" width="4" height="4" fill="#000000" />
<rect x="52" y="96" width="4" height="4" fill="#D6A10D" />
<rect x="56" y="96" width="4" height="4" fill="#D6A10D" />
<rect x="60" y="96" width="4" height="4" fill="#BD8C08" />
<rect x="64" y="96" width="4" height="4" fill="#BD8C08" />
<rect x="68" y="96" width="4" height="4" fill="#A67D0C" />
<rect x="72" y="96" width="4" height="4" fill="#A67D0C" />
<rect x="76" y="96" width="4" height="4" fill="#000000" />
<rect x="80" y="96" width="4" height="4" fill="#000000" />
<rect x="84" y="96" width="4" height="4" fill="#000000" />
<rect x="88" y="96" width="4" height="4" fill="#000000" />
<rect x="92" y="96" width="4" height="4" fill="#000000" />
<rect x="96" y="96" width="4" height="4" fill="#A67D0C" />
<rect x="100" y="96" width="4" height="4" fill="#000000" />
<rect x="104" y="96" width="4" height="4" fill="#000000" />
<rect x="108" y="96" width="4" height="4" fill="#EBB113" />
<rect x="112" y="96" width="4" height="4" fill="#000000" />
<rect x="116" y="96" width="4" height="4" fill="#000000" />
<rect x="0" y="100" width="4" height="4" fill="#000000" />
<rect x="4" y="100" width="4" height="4" fill="#EBB113" />
<rect x="8" y="100" width="4" height="4" fill="#D6A10D" />
<rect x="12" y="100" width="4" height="4" fill="#000000" />
<rect x="16" y="100" width="4" height="4" fill="#D6A10D" />
<rect x="20" y="100" width="4" height="4" fill="#000000" />
<rect x="24" y="100" width="4" height="4" fill="#000000" />
<rect x="28" y="100" width="4" height="4" fill="#000000" />
<rect x="32" y="100" width="4" height="4" fill="#A67D0C" />
<rect x="36" y="100" width="4" height="4" fill="#000000" />
<rect x="40" y="100" width="4" height="4" fill="#000000" />
<rect x="44" y="100" width="4" height="4" fill="#D6A10D" />
<rect x="48" y="100" width="4" height="4" fill="#D6A10D" />
<rect x="52" y="100" width="4" height="4" fill="#BD8C08" />
<rect x="56" y="100" width="4" height="4" fill="#BD8C08" />
<rect x="60" y="100" width="4" height="4" fill="#BD8C08" />
<rect x="64" y="100" width="4" height="4" fill="#BD8C08" />
<rect x="68" y="100" width="4" height="4" fill="#BD8C08" />
<rect x="72" y="100" width="4" height="4" fill="#BD8C08" />
<rect x="76" y="100" width="4" height="4" fill="#A67D0C" />
<rect x="80" y="100" width="4" height="4" fill="#A67D0C" />
<rect x="84" y="100" width="4" height="4" fill="#000000" />
<rect x="88" y="100" width="4" height="4" fill="#EBB113" />
<rect x="92" y="100" width="4" height="4" fill="#A67D0C" />
<rect x="96" y="100" width="4" height="4" fill="#000000" />
<rect x="100" y="100" width="4" height="4" fill="#D6A10D" />
<rect x="104" y="100" width="4" height="4" fill="#A67D0C" />
<rect x="108" y="100" width="4" height="4" fill="#000000" />
<rect x="112" y="100" width="4" height="4" fill="#D6A10D" />
<rect x="116" y="100" width="4" height="4" fill="#A67D0C" />
<rect x="120" y="100" width="4" height="4" fill="#000000" />
<rect x="0" y="104" width="4" height="4" fill="#000000" />
<rect x="4" y="104" width="4" height="4" fill="#000000" />
<rect x="8" y="104" width="4" height="4" fill="#000000" />
<rect x="12" y="104" width="4" height="4" fill="#000000" />
<rect x="16" y="104" width="4" height="4" fill="#000000" />
<rect x="20" y="104" width="4" height="4" fill="#000000" />
<rect x="24" y="104" width="4" height="4" fill="#000000" />
<rect x="28" y="104" width="4" height="4" fill="#000000" />
<rect x="32" y="104" width="4" height="4" fill="#000000" />
<rect x="36" y="104" width="4" height="4" fill="#000000" />
<rect x="40" y="104" width="4" height="4" fill="#000000" />
<rect x="44" y="104" width="4" height="4" fill="#000000" />
<rect x="48" y="104" width="4" height="4" fill="#000000" />
<rect x="52" y="104" width="4" height="4" fill="#000000" />
<rect x="56" y="104" width="4" height="4" fill="#000000" />
<rect x="60" y="104" width="4" height="4" fill="#000000" />
<rect x="64" y="104" width="4" height="4" fill="#000000" />
<rect x="68" y="104" width="4" height="4" fill="#000000" />
<rect x="72" y="104" width="4" height="4" fill="#000000" />
<rect x="76" y="104" width="4" height="4" fill="#000000" />
<rect x="80" y="104" width="4" height="4" fill="#000000" />
<rect x="84" y="104" width="4" height="4" fill="#000000" />
<rect x="88" y="104" width="4" height="4" fill="#000000" />
<rect x="92" y="104" width="4" height="4" fill="#000000" />
<rect x="96" y="104" width="4" height="4" fill="#000000" />
<rect x="100" y="104" width="4" height="4" fill="#000000" />
<rect x="104" y="104" width="4" height="4" fill="#000000" />
<rect x="108" y="104" width="4" height="4" fill="#000000" />
<rect x="112" y="104" width="4" height="4" fill="#000000" />
<rect x="116" y="104" width="4" height="4" fill="#000000" />
<rect x="120" y="104" width="4" height="4" fill="#000000" />
<rect x="124" y="104" width="4" height="4" fill="#000000" />
<rect x="0" y="108" width="4" height="4" fill="#000000" />
<rect x="4" y="108" width="4" height="4" fill="#A43B0C" />
<rect x="8" y="108" width="4" height="4" fill="#A43B0C" />
<rect x="12" y="108" width="4" height="4" fill="#A43B0C" />
<rect x="16" y="108" width="4" height="4" fill="#A43B0C" />
<rect x="20" y="108" width="4" height="4" fill="#A43B0C" />
<rect x="24" y="108" width="4" height="4" fill="#97390F" />
<rect x="28" y="108" width="4" height="4" fill="#97390F" />
<rect x="32" y="108" width="4" height="4" fill="#97390F" />
<rect x="36" y="108" width="4" height="4" fill="#97390F" />
<rect x="40" y="108" width="4" height="4" fill="#97390F" />
<rect x="44" y="108" width="4" height="4" fill="#702D0F" />
<rect x="48" y="108" width="4" height="4" fill="#702D0F" />
<rect x="52" y="108" width="4" height="4" fill="#702D0F" />
<rect x="56" y="108" width="4" height="4" fill="#702D0F" />
<rect x="60" y="108" width="4" height="4" fill="#702D0F" />
<rect x="64" y="108" width="4" height="4" fill="#702D0F" />
<rect x="68" y="108" width="4" height="4" fill="#682E14" />
<rect x="72" y="108" width="4" height="4" fill="#682E14" />
<rect x="76" y="108" width="4" height="4" fill="#863410" />
<rect x="80" y="108" width="4" height="4" fill="#863410" />
<rect x="84" y="108" width="4" height="4" fill="#682E14" />
<rect x="88" y="108" width="4" height="4" fill="#863410" />
<rect x="92" y="108" width="4" height="4" fill="#863410" />
<rect x="96" y="108" width="4" height="4" fill="#863410" />
<rect x="100" y="108" width="4" height="4" fill="#863410" />
<rect x="104" y="108" width="4" height="4" fill="#863410" />
<rect x="108" y="108" width="4" height="4" fill="#863410" />
<rect x="112" y="108" width="4" height="4" fill="#863410" />
<rect x="116" y="108" width="4" height="4" fill="#863410" />
<rect x="120" y="108" width="4" height="4" fill="#863410" />
<rect x="124" y="108" width="4" height="4" fill="#000000" />
<rect x="0" y="112" width="4" height="4" fill="#000000" />
<rect x="4" y="112" width="4" height="4" fill="#702D0F" />
<rect x="8" y="112" width="4" height="4" fill="#702D0F" />
<rect x="12" y="112" width="4" height="4" fill="#702D0F" />
<rect x="16" y="112" width="4" height="4" fill="#702D0F" />
<rect x="20" y="112" width="4" height="4" fill="#702D0F" />
<rect x="24" y="112" width="4" height="4" fill="#702D0F" />
<rect x="28" y="112" width="4" height="4" fill="#702D0F" />
<rect x="32" y="112" width="4" height="4" fill="#702D0F" />
<rect x="36" y="112" width="4" height="4" fill="#702D0F" />
<rect x="40" y="112" width="4" height="4" fill="#702D0F" />
<rect x="44" y="112" width="4" height="4" fill="#97390F" />
<rect x="48" y="112" width="4" height="4" fill="#97390F" />
<rect x="52" y="112" width="4" height="4" fill="#97390F" />
<rect x="56" y="112" width="4" height="4" fill="#97390F" />
<rect x="60" y="112" width="4" height="4" fill="#702D0F" />
<rect x="64" y="112" width="4" height="4" fill="#863410" />
<rect x="68" y="112" width="4" height="4" fill="#863410" />
<rect x="72" y="112" width="4" height="4" fill="#863410" />
<rect x="76" y="112" width="4" height="4" fill="#682E14" />
<rect x="80" y="112" width="4" height="4" fill="#682E14" />
<rect x="84" y="112" width="4" height="4" fill="#863410" />
<rect x="88" y="112" width="4" height="4" fill="#682E14" />
<rect x="92" y="112" width="4" height="4" fill="#682E14" />
<rect x="96" y="112" width="4" height="4" fill="#682E14" />
<rect x="100" y="112" width="4" height="4" fill="#682E14" />
<rect x="104" y="112" width="4" height="4" fill="#682E14" />
<rect x="108" y="112" width="4" height="4" fill="#682E14" />
<rect x="112" y="112" width="4" height="4" fill="#682E14" />
<rect x="116" y="112" width="4" height="4" fill="#682E14" />
<rect x="120" y="112" width="4" height="4" fill="#682E14" />
<rect x="124" y="112" width="4" height="4" fill="#000000" />
<rect x="0" y="116" width="4" height="4" fill="#000000" />
<rect x="4" y="116" width="4" height="4" fill="#702D0F" />
<rect x="8" y="116" width="4" height="4" fill="#702D0F" />
<rect x="12" y="116" width="4" height="4" fill="#97390F" />
<rect x="16" y="116" width="4" height="4" fill="#97390F" />
<rect x="20" y="116" width="4" height="4" fill="#97390F" />
<rect x="24" y="116" width="4" height="4" fill="#97390F" />
<rect x="28" y="116" width="4" height="4" fill="#97390F" />
<rect x="32" y="116" width="4" height="4" fill="#97390F" />
<rect x="36" y="116" width="4" height="4" fill="#97390F" />
<rect x="40" y="116" width="4" height="4" fill="#97390F" />
<rect x="44" y="116" width="4" height="4" fill="#702D0F" />
<rect x="48" y="116" width="4" height="4" fill="#702D0F" />
<rect x="52" y="116" width="4" height="4" fill="#702D0F" />
<rect x="56" y="116" width="4" height="4" fill="#702D0F" />
<rect x="60" y="116" width="4" height="4" fill="#682E14" />
<rect x="64" y="116" width="4" height="4" fill="#682E14" />
<rect x="68" y="116" width="4" height="4" fill="#682E14" />
<rect x="72" y="116" width="4" height="4" fill="#682E14" />
<rect x="76" y="116" width="4" height="4" fill="#863410" />
<rect x="80" y="116" width="4" height="4" fill="#682E14" />
<rect x="84" y="116" width="4" height="4" fill="#682E14" />
<rect x="88" y="116" width="4" height="4" fill="#682E14" />
<rect x="92" y="116" width="4" height="4" fill="#682E14" />
<rect x="96" y="116" width="4" height="4" fill="#863410" />
<rect x="100" y="116" width="4" height="4" fill="#863410" />
<rect x="104" y="116" width="4" height="4" fill="#863410" />
<rect x="108" y="116" width="4" height="4" fill="#863410" />
<rect x="112" y="116" width="4" height="4" fill="#863410" />
<rect x="116" y="116" width="4" height="4" fill="#863410" />
<rect x="120" y="116" width="4" height="4" fill="#863410" />
<rect x="124" y="116" width="4" height="4" fill="#000000" />
<rect x="0" y="120" width="4" height="4" fill="#000000" />
<rect x="4" y="120" width="4" height="4" fill="#A43B0C" />
<rect x="8" y="120" width="4" height="4" fill="#97390F" />
<rect x="12" y="120" width="4" height="4" fill="#702D0F" />
<rect x="16" y="120" width="4" height="4" fill="#702D0F" />
<rect x="20" y="120" width="4" height="4" fill="#702D0F" />
<rect x="24" y="120" width="4" height="4" fill="#702D0F" />
<rect x="28" y="120" width="4" height="4" fill="#702D0F" />
<rect x="32" y="120" width="4" height="4" fill="#97390F" />
<rect x="36" y="120" width="4" height="4" fill="#702D0F" />
<rect x="40" y="120" width="4" height="4" fill="#702D0F" />
<rect x="44" y="120" width="4" height="4" fill="#702D0F" />
<rect x="48" y="120" width="4" height="4" fill="#702D0F" />
<rect x="52" y="120" width="4" height="4" fill="#702D0F" />
<rect x="56" y="120" width="4" height="4" fill="#863410" />
<rect x="60" y="120" width="4" height="4" fill="#863410" />
<rect x="64" y="120" width="4" height="4" fill="#863410" />
<rect x="68" y="120" width="4" height="4" fill="#863410" />
<rect x="72" y="120" width="4" height="4" fill="#863410" />
<rect x="76" y="120" width="4" height="4" fill="#863410" />
<rect x="80" y="120" width="4" height="4" fill="#863410" />
<rect x="84" y="120" width="4" height="4" fill="#863410" />
<rect x="88" y="120" width="4" height="4" fill="#682E14" />
<rect x="92" y="120" width="4" height="4" fill="#863410" />
<rect x="96" y="120" width="4" height="4" fill="#682E14" />
<rect x="100" y="120" width="4" height="4" fill="#682E14" />
<rect x="104" y="120" width="4" height="4" fill="#682E14" />
<rect x="108" y="120" width="4" height="4" fill="#682E14" />
<rect x="112" y="120" width="4" height="4" fill="#682E14" />
<rect x="116" y="120" width="4" height="4" fill="#682E14" />
<rect x="120" y="120" width="4" height="4" fill="#682E14" />
<rect x="124" y="120" width="4" height="4" fill="#000000" />
<rect x="0" y="124" width="4" height="4" fill="#000000" />
<rect x="4" y="124" width="4" height="4" fill="#000000" />
<rect x="8" y="124" width="4" height="4" fill="#000000" />
<rect x="12" y="124" width="4" height="4" fill="#000000" />
<rect x="16" y="124" width="4" height="4" fill="#000000" />
<rect x="20" y="124" width="4" height="4" fill="#000000" />
<rect x="24" y="124" width="4" height="4" fill="#000000" />
<rect x="28" y="124" width="4" height="4" fill="#000000" />
<rect x="32" y="124" width="4" height="4" fill="#000000" />
<rect x="36" y="124" width="4" height="4" fill="#000000" />
<rect x="40" y="124" width="4" height="4" fill="#000000" />
<rect x="44" y="124" width="4" height="4" fill="#000000" />
<rect x="48" y="124" width="4" height="4" fill="#000000" />
<rect x="52" y="124" width="4" height="4" fill="#000000" />
<rect x="56" y="124" width="4" height="4" fill="#000000" />
<rect x="60" y="124" width="4" height="4" fill="#000000" />
<rect x="64" y="124" width="4" height="4" fill="#000000" />
<rect x="68" y="124" width="4" height="4" fill="#000000" />
<rect x="72" y="124" width="4" height="4" fill="#000000" />
<rect x="76" y="124" width="4" height="4" fill="#000000" />
<rect x="80" y="124" width="4" height="4" fill="#000000" />
<rect x="84" y="124" width="4" height="4" fill="#000000" />
<rect x="88" y="124" width="4" height="4" fill="#000000" />
<rect x="92" y="124" width="4" height="4" fill="#000000" />
<rect x="96" y="124" width="4" height="4" fill="#000000" />
<rect x="100" y="124" width="4" height="4" fill="#000000" />
<rect x="104" y="124" width="4" height="4" fill="#000000" />
<rect x="108" y="124" width="4" height="4" fill="#000000" />
<rect x="112" y="124" width="4" height="4" fill="#000000" />
<rect x="116" y="124" width="4" height="4" fill="#000000" />
<rect x="120" y="124" width="4" height="4" fill="#000000" />
<rect x="124" y="124" width="4" height="4" fill="#000000" />
</svg>