<?xml version="1.0" encoding="UTF-8" ?>
<svg version="1.1" width="160" height="160" xmlns="http://www.w3.org/2000/svg" shape-rendering="crispEdges">
<rect x="65" y="0" width="5" height="5" fill="#000000" />
<rect x="70" y="0" width="5" height="5" fill="#000000" />
<rect x="75" y="0" width="5" height="5" fill="#000000" />
<rect x="80" y="0" width="5" height="5" fill="#000000" />
<rect x="85" y="0" width="5" height="5" fill="#000000" />
<rect x="90" y="0" width="5" height="5" fill="#000000" />
<rect x="60" y="5" width="5" height="5" fill="#000000" />
<rect x="65" y="5" width="5" height="5" fill="#171717" />
<rect x="70" y="5" width="5" height="5" fill="#121212" />
<rect x="75" y="5" width="5" height="5" fill="#121212" />
<rect x="80" y="5" width="5" height="5" fill="#000000" />
<rect x="85" y="5" width="5" height="5" fill="#000000" />
<rect x="90" y="5" width="5" height="5" fill="#000000" />
<rect x="95" y="5" width="5" height="5" fill="#000000" />
<rect x="60" y="10" width="5" height="5" fill="#000000" />
<rect x="65" y="10" width="5" height="5" fill="#171717" />
<rect x="70" y="10" width="5" height="5" fill="#171717" />
<rect x="75" y="10" width="5" height="5" fill="#000000" />
<rect x="80" y="10" width="5" height="5" fill="#000000" />
<rect x="85" y="10" width="5" height="5" fill="#000000" />
<rect x="90" y="10" width="5" height="5" fill="#000000" />
<rect x="95" y="10" width="5" height="5" fill="#000000" />
<rect x="60" y="15" width="5" height="5" fill="#000000" />
<rect x="65" y="15" width="5" height="5" fill="#171717" />
<rect x="70" y="15" width="5" height="5" fill="#000000" />
<rect x="75" y="15" width="5" height="5" fill="#000000" />
<rect x="80" y="15" width="5" height="5" fill="#000000" />
<rect x="85" y="15" width="5" height="5" fill="#000000" />
<rect x="90" y="15" width="5" height="5" fill="#000000" />
<rect x="95" y="15" width="5" height="5" fill="#000000" />
<rect x="60" y="20" width="5" height="5" fill="#000000" />
<rect x="65" y="20" width="5" height="5" fill="#000000" />
<rect x="70" y="20" width="5" height="5" fill="#000000" />
<rect x="75" y="20" width="5" height="5" fill="#000000" />
<rect x="80" y="20" width="5" height="5" fill="#000000" />
<rect x="85" y="20" width="5" height="5" fill="#000000" />
<rect x="90" y="20" width="5" height="5" fill="#000000" />
<rect x="95" y="20" width="5" height="5" fill="#000000" />
<rect x="50" y="25" width="5" height="5" fill="#000000" />
<rect x="55" y="25" width="5" height="5" fill="#000000" />
<rect x="60" y="25" width="5" height="5" fill="#000000" />
<rect x="65" y="25" width="5" height="5" fill="#000000" />
<rect x="70" y="25" width="5" height="5" fill="#000000" />
<rect x="75" y="25" width="5" height="5" fill="#000000" />
<rect x="80" y="25" width="5" height="5" fill="#000000" />
<rect x="85" y="25" width="5" height="5" fill="#000000" />
<rect x="90" y="25" width="5" height="5" fill="#000000" />
<rect x="95" y="25" width="5" height="5" fill="#000000" />
<rect x="100" y="25" width="5" height="5" fill="#000000" />
<rect x="105" y="25" width="5" height="5" fill="#000000" />
<rect x="55" y="30" width="5" height="5" fill="#000000" />
<rect x="60" y="30" width="5" height="5" fill="#A9ABAB" />
<rect x="65" y="30" width="5" height="5" fill="#888A8A" />
<rect x="70" y="30" width="5" height="5" fill="#7C7D7D" />
<rect x="75" y="30" width="5" height="5" fill="#7C7D7D" />
<rect x="80" y="30" width="5" height="5" fill="#7C7D7D" />
<rect x="85" y="30" width="5" height="5" fill="#E0B516" />
<rect x="90" y="30" width="5" height="5" fill="#D1A919" />
<rect x="95" y="30" width="5" height="5" fill="#696A6A" />
<rect x="100" y="30" width="5" height="5" fill="#000000" />
<rect x="55" y="35" width="5" height="5" fill="#000000" />
<rect x="60" y="35" width="5" height="5" fill="#888A8A" />
<rect x="65" y="35" width="5" height="5" fill="#000000" />
<rect x="70" y="35" width="5" height="5" fill="#E9E9DF" />
<rect x="75" y="35" width="5" height="5" fill="#7C7D7D" />
<rect x="80" y="35" width="5" height="5" fill="#E0B516" />
<rect x="85" y="35" width="5" height="5" fill="#E9E9DF" />
<rect x="90" y="35" width="5" height="5" fill="#000000" />
<rect x="95" y="35" width="5" height="5" fill="#D1A919" />
<rect x="100" y="35" width="5" height="5" fill="#000000" />
<rect x="55" y="40" width="5" height="5" fill="#000000" />
<rect x="60" y="40" width="5" height="5" fill="#7C7D7D" />
<rect x="65" y="40" width="5" height="5" fill="#E9E9DF" />
<rect x="70" y="40" width="5" height="5" fill="#000000" />
<rect x="75" y="40" width="5" height="5" fill="#696A6A" />
<rect x="80" y="40" width="5" height="5" fill="#E0B516" />
<rect x="85" y="40" width="5" height="5" fill="#000000" />
<rect x="90" y="40" width="5" height="5" fill="#E9E9DF" />
<rect x="95" y="40" width="5" height="5" fill="#D1A919" />
<rect x="100" y="40" width="5" height="5" fill="#000000" />
<rect x="55" y="45" width="5" height="5" fill="#000000" />
<rect x="60" y="45" width="5" height="5" fill="#7C7D7D" />
<rect x="65" y="45" width="5" height="5" fill="#7C7D7D" />
<rect x="70" y="45" width="5" height="5" fill="#696A6A" />
<rect x="75" y="45" width="5" height="5" fill="#696A6A" />
<rect x="80" y="45" width="5" height="5" fill="#696A6A" />
<rect x="85" y="45" width="5" height="5" fill="#D1A919" />
<rect x="90" y="45" width="5" height="5" fill="#D1A919" />
<rect x="95" y="45" width="5" height="5" fill="#696A6A" />
<rect x="100" y="45" width="5" height="5" fill="#D1A919" />
<rect x="55" y="50" width="5" height="5" fill="#000000" />
<rect x="60" y="50" width="5" height="5" fill="#7C7D7D" />
<rect x="65" y="50" width="5" height="5" fill="#696A6A" />
<rect x="70" y="50" width="5" height="5" fill="#696A6A" />
<rect x="75" y="50" width="5" height="5" fill="#000000" />
<rect x="80" y="50" width="5" height="5" fill="#000000" />
<rect x="85" y="50" width="5" height="5" fill="#696A6A" />
<rect x="90" y="50" width="5" height="5" fill="#696A6A" />
<rect x="95" y="50" width="5" height="5" fill="#696A6A" />
<rect x="100" y="50" width="5" height="5" fill="#000000" />
<rect x="105" y="50" width="5" height="5" fill="#D1A919" />
<rect x="55" y="55" width="5" height="5" fill="#000000" />
<rect x="60" y="55" width="5" height="5" fill="#696A6A" />
<rect x="65" y="55" width="5" height="5" fill="#696A6A" />
<rect x="70" y="55" width="5" height="5" fill="#696A6A" />
<rect x="75" y="55" width="5" height="5" fill="#696A6A" />
<rect x="80" y="55" width="5" height="5" fill="#696A6A" />
<rect x="85" y="55" width="5" height="5" fill="#696A6A" />
<rect x="90" y="55" width="5" height="5" fill="#696A6A" />
<rect x="95" y="55" width="5" height="5" fill="#5C5C5C" />
<rect x="100" y="55" width="5" height="5" fill="#000000" />
<rect x="105" y="55" width="5" height="5" fill="#D1A919" />
<rect x="55" y="60" width="5" height="5" fill="#000000" />
<rect x="60" y="60" width="5" height="5" fill="#696A6A" />
<rect x="65" y="60" width="5" height="5" fill="#000000" />
<rect x="70" y="60" width="5" height="5" fill="#E0B516" />
<rect x="75" y="60" width="5" height="5" fill="#000000" />
<rect x="80" y="60" width="5" height="5" fill="#E0B516" />
<rect x="85" y="60" width="5" height="5" fill="#000000" />
<rect x="90" y="60" width="5" height="5" fill="#E0B516" />
<rect x="95" y="60" width="5" height="5" fill="#5C5C5C" />
<rect x="100" y="60" width="5" height="5" fill="#000000" />
<rect x="105" y="60" width="5" height="5" fill="#D1A919" />
<rect x="55" y="65" width="5" height="5" fill="#000000" />
<rect x="60" y="65" width="5" height="5" fill="#696A6A" />
<rect x="65" y="65" width="5" height="5" fill="#696A6A" />
<rect x="70" y="65" width="5" height="5" fill="#696A6A" />
<rect x="75" y="65" width="5" height="5" fill="#696A6A" />
<rect x="80" y="65" width="5" height="5" fill="#696A6A" />
<rect x="85" y="65" width="5" height="5" fill="#5C5C5C" />
<rect x="90" y="65" width="5" height="5" fill="#5C5C5C" />
<rect x="95" y="65" width="5" height="5" fill="#5C5C5C" />
<rect x="100" y="65" width="5" height="5" fill="#000000" />
<rect x="105" y="65" width="5" height="5" fill="#D1A919" />
<rect x="50" y="70" width="5" height="5" fill="#000000" />
<rect x="55" y="70" width="5" height="5" fill="#000000" />
<rect x="60" y="70" width="5" height="5" fill="#000000" />
<rect x="65" y="70" width="5" height="5" fill="#000000" />
<rect x="70" y="70" width="5" height="5" fill="#000000" />
<rect x="75" y="70" width="5" height="5" fill="#000000" />
<rect x="80" y="70" width="5" height="5" fill="#000000" />
<rect x="85" y="70" width="5" height="5" fill="#000000" />
<rect x="90" y="70" width="5" height="5" fill="#000000" />
<rect x="95" y="70" width="5" height="5" fill="#E0B516" />
<rect x="100" y="70" width="5" height="5" fill="#D1A919" />
<rect x="105" y="70" width="5" height="5" fill="#000000" />
<rect x="35" y="75" width="5" height="5" fill="#000000" />
<rect x="40" y="75" width="5" height="5" fill="#000000" />
<rect x="45" y="75" width="5" height="5" fill="#000000" />
<rect x="50" y="75" width="5" height="5" fill="#000000" />
<rect x="55" y="75" width="5" height="5" fill="#888A8A" />
<rect x="60" y="75" width="5" height="5" fill="#7C7D7D" />
<rect x="65" y="75" width="5" height="5" fill="#696A6A" />
<rect x="70" y="75" width="5" height="5" fill="#696A6A" />
<rect x="75" y="75" width="5" height="5" fill="#696A6A" />
<rect x="80" y="75" width="5" height="5" fill="#696A6A" />
<rect x="85" y="75" width="5" height="5" fill="#696A6A" />
<rect x="90" y="75" width="5" height="5" fill="#696A6A" />
<rect x="95" y="75" width="5" height="5" fill="#696A6A" />
<rect x="100" y="75" width="5" height="5" fill="#696A6A" />
<rect x="105" y="75" width="5" height="5" fill="#000000" />
<rect x="110" y="75" width="5" height="5" fill="#000000" />
<rect x="115" y="75" width="5" height="5" fill="#000000" />
<rect x="120" y="75" width="5" height="5" fill="#000000" />
<rect x="30" y="80" width="5" height="5" fill="#000000" />
<rect x="35" y="80" width="5" height="5" fill="#000000" />
<rect x="40" y="80" width="5" height="5" fill="#888A8A" />
<rect x="45" y="80" width="5" height="5" fill="#888A8A" />
<rect x="50" y="80" width="5" height="5" fill="#000000" />
<rect x="55" y="80" width="5" height="5" fill="#7C7D7D" />
<rect x="60" y="80" width="5" height="5" fill="#000000" />
<rect x="65" y="80" width="5" height="5" fill="#000000" />
<rect x="70" y="80" width="5" height="5" fill="#000000" />
<rect x="75" y="80" width="5" height="5" fill="#000000" />
<rect x="80" y="80" width="5" height="5" fill="#000000" />
<rect x="85" y="80" width="5" height="5" fill="#000000" />
<rect x="90" y="80" width="5" height="5" fill="#000000" />
<rect x="95" y="80" width="5" height="5" fill="#000000" />
<rect x="100" y="80" width="5" height="5" fill="#000000" />
<rect x="105" y="80" width="5" height="5" fill="#000000" />
<rect x="110" y="80" width="5" height="5" fill="#696A6A" />
<rect x="115" y="80" width="5" height="5" fill="#696A6A" />
<rect x="120" y="80" width="5" height="5" fill="#000000" />
<rect x="125" y="80" width="5" height="5" fill="#000000" />
<rect x="25" y="85" width="5" height="5" fill="#000000" />
<rect x="30" y="85" width="5" height="5" fill="#000000" />
<rect x="35" y="85" width="5" height="5" fill="#888A8A" />
<rect x="40" y="85" width="5" height="5" fill="#000000" />
<rect x="45" y="85" width="5" height="5" fill="#696A6A" />
<rect x="50" y="85" width="5" height="5" fill="#000000" />
<rect x="55" y="85" width="5" height="5" fill="#696A6A" />
<rect x="60" y="85" width="5" height="5" fill="#000000" />
<rect x="65" y="85" width="5" height="5" fill="#696A6A" />
<rect x="70" y="85" width="5" height="5" fill="#696A6A" />
<rect x="75" y="85" width="5" height="5" fill="#696A6A" />
<rect x="80" y="85" width="5" height="5" fill="#696A6A" />
<rect x="85" y="85" width="5" height="5" fill="#696A6A" />
<rect x="90" y="85" width="5" height="5" fill="#696A6A" />
<rect x="95" y="85" width="5" height="5" fill="#696A6A" />
<rect x="100" y="85" width="5" height="5" fill="#696A6A" />
<rect x="105" y="85" width="5" height="5" fill="#000000" />
<rect x="110" y="85" width="5" height="5" fill="#5C5C5C" />
<rect x="115" y="85" width="5" height="5" fill="#000000" />
<rect x="120" y="85" width="5" height="5" fill="#696A6A" />
<rect x="125" y="85" width="5" height="5" fill="#000000" />
<rect x="130" y="85" width="5" height="5" fill="#000000" />
<rect x="25" y="90" width="5" height="5" fill="#000000" />
<rect x="30" y="90" width="5" height="5" fill="#7C7D7D" />
<rect x="35" y="90" width="5" height="5" fill="#7C7D7D" />
<rect x="40" y="90" width="5" height="5" fill="#696A6A" />
<rect x="45" y="90" width="5" height="5" fill="#000000" />
<rect x="50" y="90" width="5" height="5" fill="#000000" />
<rect x="55" y="90" width="5" height="5" fill="#000000" />
<rect x="60" y="90" width="5" height="5" fill="#000000" />
<rect x="65" y="90" width="5" height="5" fill="#000000" />
<rect x="70" y="90" width="5" height="5" fill="#696A6A" />
<rect x="75" y="90" width="5" height="5" fill="#696A6A" />
<rect x="80" y="90" width="5" height="5" fill="#696A6A" />
<rect x="85" y="90" width="5" height="5" fill="#696A6A" />
<rect x="90" y="90" width="5" height="5" fill="#7C7D7D" />
<rect x="95" y="90" width="5" height="5" fill="#7C7D7D" />
<rect x="100" y="90" width="5" height="5" fill="#696A6A" />
<rect x="105" y="90" width="5" height="5" fill="#000000" />
<rect x="110" y="90" width="5" height="5" fill="#000000" />
<rect x="115" y="90" width="5" height="5" fill="#5C5C5C" />
<rect x="120" y="90" width="5" height="5" fill="#696A6A" />
<rect x="125" y="90" width="5" height="5" fill="#696A6A" />
<rect x="130" y="90" width="5" height="5" fill="#000000" />
<rect x="25" y="95" width="5" height="5" fill="#000000" />
<rect x="30" y="95" width="5" height="5" fill="#000000" />
<rect x="35" y="95" width="5" height="5" fill="#000000" />
<rect x="40" y="95" width="5" height="5" fill="#000000" />
<rect x="45" y="95" width="5" height="5" fill="#000000" />
<rect x="50" y="95" width="5" height="5" fill="#000000" />
<rect x="55" y="95" width="5" height="5" fill="#696A6A" />
<rect x="60" y="95" width="5" height="5" fill="#000000" />
<rect x="65" y="95" width="5" height="5" fill="#696A6A" />
<rect x="70" y="95" width="5" height="5" fill="#696A6A" />
<rect x="75" y="95" width="5" height="5" fill="#696A6A" />
<rect x="80" y="95" width="5" height="5" fill="#696A6A" />
<rect x="85" y="95" width="5" height="5" fill="#7C7D7D" />
<rect x="90" y="95" width="5" height="5" fill="#000000" />
<rect x="95" y="95" width="5" height="5" fill="#000000" />
<rect x="100" y="95" width="5" height="5" fill="#5C5C5C" />
<rect x="105" y="95" width="5" height="5" fill="#000000" />
<rect x="110" y="95" width="5" height="5" fill="#000000" />
<rect x="115" y="95" width="5" height="5" fill="#000000" />
<rect x="120" y="95" width="5" height="5" fill="#000000" />
<rect x="125" y="95" width="5" height="5" fill="#000000" />
<rect x="130" y="95" width="5" height="5" fill="#000000" />
<rect x="25" y="100" width="5" height="5" fill="#000000" />
<rect x="30" y="100" width="5" height="5" fill="#7C7D7D" />
<rect x="35" y="100" width="5" height="5" fill="#696A6A" />
<rect x="40" y="100" width="5" height="5" fill="#000000" />
<rect x="50" y="100" width="5" height="5" fill="#000000" />
<rect x="55" y="100" width="5" height="5" fill="#696A6A" />
<rect x="60" y="100" width="5" height="5" fill="#000000" />
<rect x="65" y="100" width="5" height="5" fill="#696A6A" />
<rect x="70" y="100" width="5" height="5" fill="#696A6A" />
<rect x="75" y="100" width="5" height="5" fill="#696A6A" />
<rect x="80" y="100" width="5" height="5" fill="#696A6A" />
<rect x="85" y="100" width="5" height="5" fill="#7C7D7D" />
<rect x="90" y="100" width="5" height="5" fill="#000000" />
<rect x="95" y="100" width="5" height="5" fill="#000000" />
<rect x="100" y="100" width="5" height="5" fill="#5C5C5C" />
<rect x="105" y="100" width="5" height="5" fill="#000000" />
<rect x="115" y="100" width="5" height="5" fill="#000000" />
<rect x="120" y="100" width="5" height="5" fill="#5C5C5C" />
<rect x="125" y="100" width="5" height="5" fill="#696A6A" />
<rect x="130" y="100" width="5" height="5" fill="#000000" />
<rect x="25" y="105" width="5" height="5" fill="#000000" />
<rect x="30" y="105" width="5" height="5" fill="#000000" />
<rect x="35" y="105" width="5" height="5" fill="#000000" />
<rect x="40" y="105" width="5" height="5" fill="#000000" />
<rect x="50" y="105" width="5" height="5" fill="#000000" />
<rect x="55" y="105" width="5" height="5" fill="#000000" />
<rect x="60" y="105" width="5" height="5" fill="#000000" />
<rect x="65" y="105" width="5" height="5" fill="#000000" />
<rect x="70" y="105" width="5" height="5" fill="#696A6A" />
<rect x="75" y="105" width="5" height="5" fill="#696A6A" />
<rect x="80" y="105" width="5" height="5" fill="#696A6A" />
<rect x="85" y="105" width="5" height="5" fill="#696A6A" />
<rect x="90" y="105" width="5" height="5" fill="#5C5C5C" />
<rect x="95" y="105" width="5" height="5" fill="#5C5C5C" />
<rect x="100" y="105" width="5" height="5" fill="#696A6A" />
<rect x="105" y="105" width="5" height="5" fill="#000000" />
<rect x="115" y="105" width="5" height="5" fill="#000000" />
<rect x="120" y="105" width="5" height="5" fill="#000000" />
<rect x="125" y="105" width="5" height="5" fill="#000000" />
<rect x="130" y="105" width="5" height="5" fill="#000000" />
<rect x="20" y="110" width="5" height="5" fill="#000000" />
<rect x="25" y="110" width="5" height="5" fill="#F2F2EB" />
<rect x="30" y="110" width="5" height="5" fill="#F2F2EB" />
<rect x="35" y="110" width="5" height="5" fill="#F2F2EB" />
<rect x="40" y="110" width="5" height="5" fill="#F2F2EB" />
<rect x="45" y="110" width="5" height="5" fill="#000000" />
<rect x="50" y="110" width="5" height="5" fill="#000000" />
<rect x="55" y="110" width="5" height="5" fill="#696A6A" />
<rect x="60" y="110" width="5" height="5" fill="#000000" />
<rect x="65" y="110" width="5" height="5" fill="#696A6A" />
<rect x="70" y="110" width="5" height="5" fill="#696A6A" />
<rect x="75" y="110" width="5" height="5" fill="#696A6A" />
<rect x="80" y="110" width="5" height="5" fill="#696A6A" />
<rect x="85" y="110" width="5" height="5" fill="#696A6A" />
<rect x="90" y="110" width="5" height="5" fill="#696A6A" />
<rect x="95" y="110" width="5" height="5" fill="#696A6A" />
<rect x="100" y="110" width="5" height="5" fill="#696A6A" />
<rect x="105" y="110" width="5" height="5" fill="#000000" />
<rect x="110" y="110" width="5" height="5" fill="#000000" />
<rect x="115" y="110" width="5" height="5" fill="#F2F2EB" />
<rect x="120" y="110" width="5" height="5" fill="#F2F2EB" />
<rect x="125" y="110" width="5" height="5" fill="#F2F2EB" />
<rect x="130" y="110" width="5" height="5" fill="#F2F2EB" />
<rect x="135" y="110" width="5" height="5" fill="#000000" />
<rect x="20" y="115" width="5" height="5" fill="#000000" />
<rect x="25" y="115" width="5" height="5" fill="#F2F2EB" />
<rect x="30" y="115" width="5" height="5" fill="#000000" />
<rect x="35" y="115" width="5" height="5" fill="#000000" />
<rect x="40" y="115" width="5" height="5" fill="#F2F2EB" />
<rect x="45" y="115" width="5" height="5" fill="#000000" />
<rect x="50" y="115" width="5" height="5" fill="#000000" />
<rect x="55" y="115" width="5" height="5" fill="#696A6A" />
<rect x="60" y="115" width="5" height="5" fill="#000000" />
<rect x="65" y="115" width="5" height="5" fill="#000000" />
<rect x="70" y="115" width="5" height="5" fill="#000000" />
<rect x="75" y="115" width="5" height="5" fill="#000000" />
<rect x="80" y="115" width="5" height="5" fill="#000000" />
<rect x="85" y="115" width="5" height="5" fill="#000000" />
<rect x="90" y="115" width="5" height="5" fill="#000000" />
<rect x="95" y="115" width="5" height="5" fill="#000000" />
<rect x="100" y="115" width="5" height="5" fill="#000000" />
<rect x="105" y="115" width="5" height="5" fill="#000000" />
<rect x="110" y="115" width="5" height="5" fill="#000000" />
<rect x="115" y="115" width="5" height="5" fill="#F2F2EB" />
<rect x="120" y="115" width="5" height="5" fill="#000000" />
<rect x="125" y="115" width="5" height="5" fill="#000000" />
<rect x="130" y="115" width="5" height="5" fill="#F2F2EB" />
<rect x="135" y="115" width="5" height="5" fill="#000000" />
<rect x="25" y="120" width="5" height="5" fill="#000000" />
<rect x="40" y="120" width="5" height="5" fill="#000000" />
<rect x="50" y="120" width="5" height="5" fill="#000000" />
<rect x="55" y="120" width="5" height="5" fill="#696A6A" />
<rect x="60" y="120" width="5" height="5" fill="#696A6A" />
<rect x="65" y="120" width="5" height="5" fill="#696A6A" />
<rect x="70" y="120" width="5" height="5" fill="#696A6A" />
<rect x="75" y="120" width="5" height="5" fill="#696A6A" />
<rect x="80" y="120" width="5" height="5" fill="#696A6A" />
<rect x="85" y="120" width="5" height="5" fill="#696A6A" />
<rect x="90" y="120" width="5" height="5" fill="#696A6A" />
<rect x="95" y="120" width="5" height="5" fill="#5C5C5C" />
<rect x="100" y="120" width="5" height="5" fill="#5C5C5C" />
<rect x="105" y="120" width="5" height="5" fill="#000000" />
<rect x="115" y="120" width="5" height="5" fill="#000000" />
<rect x="130" y="120" width="5" height="5" fill="#000000" />
<rect x="50" y="125" width="5" height="5" fill="#000000" />
<rect x="55" y="125" width="5" height="5" fill="#696A6A" />
<rect x="60" y="125" width="5" height="5" fill="#696A6A" />
<rect x="65" y="125" width="5" height="5" fill="#696A6A" />
<rect x="70" y="125" width="5" height="5" fill="#696A6A" />
<rect x="75" y="125" width="5" height="5" fill="#5C5C5C" />
<rect x="80" y="125" width="5" height="5" fill="#5C5C5C" />
<rect x="85" y="125" width="5" height="5" fill="#5C5C5C" />
<rect x="90" y="125" width="5" height="5" fill="#5C5C5C" />
<rect x="95" y="125" width="5" height="5" fill="#5C5C5C" />
<rect x="100" y="125" width="5" height="5" fill="#5C5C5C" />
<rect x="105" y="125" width="5" height="5" fill="#000000" />
<rect x="50" y="130" width="5" height="5" fill="#000000" />
<rect x="55" y="130" width="5" height="5" fill="#000000" />
<rect x="60" y="130" width="5" height="5" fill="#000000" />
<rect x="65" y="130" width="5" height="5" fill="#000000" />
<rect x="70" y="130" width="5" height="5" fill="#000000" />
<rect x="75" y="130" width="5" height="5" fill="#000000" />
<rect x="80" y="130" width="5" height="5" fill="#000000" />
<rect x="85" y="130" width="5" height="5" fill="#000000" />
<rect x="90" y="130" width="5" height="5" fill="#000000" />
<rect x="95" y="130" width="5" height="5" fill="#000000" />
<rect x="100" y="130" width="5" height="5" fill="#000000" />
<rect x="105" y="130" width="5" height="5" fill="#000000" />
<rect x="55" y="135" width="5" height="5" fill="#000000" />
<rect x="60" y="135" width="5" height="5" fill="#7C7D7D" />
<rect x="65" y="135" width="5" height="5" fill="#696A6A" />
<rect x="70" y="135" width="5" height="5" fill="#000000" />
<rect x="85" y="135" width="5" height="5" fill="#000000" />
<rect x="90" y="135" width="5" height="5" fill="#5C5C5C" />
<rect x="95" y="135" width="5" height="5" fill="#696A6A" />
<rect x="100" y="135" width="5" height="5" fill="#000000" />
<rect x="55" y="140" width="5" height="5" fill="#000000" />
<rect x="60" y="140" width="5" height="5" fill="#000000" />
<rect x="65" y="140" width="5" height="5" fill="#000000" />
<rect x="70" y="140" width="5" height="5" fill="#000000" />
<rect x="85" y="140" width="5" height="5" fill="#000000" />
<rect x="90" y="140" width="5" height="5" fill="#000000" />
<rect x="95" y="140" width="5" height="5" fill="#000000" />
<rect x="100" y="140" width="5" height="5" fill="#000000" />
<rect x="50" y="145" width="5" height="5" fill="#000000" />
<rect x="55" y="145" width="5" height="5" fill="#000000" />
<rect x="60" y="145" width="5" height="5" fill="#7C7D7D" />
<rect x="65" y="145" width="5" height="5" fill="#696A6A" />
<rect x="70" y="145" width="5" height="5" fill="#000000" />
<rect x="85" y="145" width="5" height="5" fill="#000000" />
<rect x="90" y="145" width="5" height="5" fill="#5C5C5C" />
<rect x="95" y="145" width="5" height="5" fill="#696A6A" />
<rect x="100" y="145" width="5" height="5" fill="#000000" />
<rect x="105" y="145" width="5" height="5" fill="#000000" />
<rect x="45" y="150" width="5" height="5" fill="#000000" />
<rect x="50" y="150" width="5" height="5" fill="#7C7D7D" />
<rect x="55" y="150" width="5" height="5" fill="#696A6A" />
<rect x="60" y="150" width="5" height="5" fill="#000000" />
<rect x="65" y="150" width="5" height="5" fill="#696A6A" />
<rect x="70" y="150" width="5" height="5" fill="#000000" />
<rect x="85" y="150" width="5" height="5" fill="#000000" />
<rect x="90" y="150" width="5" height="5" fill="#5C5C5C" />
<rect x="95" y="150" width="5" height="5" fill="#000000" />
<rect x="100" y="150" width="5" height="5" fill="#5C5C5C" />
<rect x="105" y="150" width="5" height="5" fill="#5C5C5C" />
<rect x="110" y="150" width="5" height="5" fill="#000000" />
<rect x="45" y="155" width="5" height="5" fill="#000000" />
<rect x="50" y="155" width="5" height="5" fill="#000000" />
<rect x="55" y="155" width="5" height="5" fill="#000000" />
<rect x="60" y="155" width="5" height="5" fill="#000000" />
<rect x="65" y="155" width="5" height="5" fill="#000000" />
<rect x="70" y="155" width="5" height="5" fill="#000000" />
<rect x="85" y="155" width="5" height="5" fill="#000000" />
<rect x="90" y="155" width="5" height="5" fill="#000000" />
<rect x="95" y="155" width="5" height="5" fill="#000000" />
<rect x="100" y="155" width="5" height="5" fill="#000000" />
<rect x="105" y="155" width="5" height="5" fill="#000000" />
<rect x="110" y="155" width="5" height="5" fill="#000000" />
</svg>