<?xml version="1.0" encoding="UTF-8" ?>
<svg version="1.1" width="128" height="64" xmlns="http://www.w3.org/2000/svg" shape-rendering="crispEdges">
<rect x="52" y="4" width="4" height="4" fill="#000000" />
<rect x="60" y="4" width="4" height="4" fill="#000000" />
<rect x="76" y="4" width="4" height="4" fill="#000000" />
<rect x="48" y="8" width="4" height="4" fill="#000000" />
<rect x="52" y="8" width="4" height="4" fill="#2B2B2B" />
<rect x="56" y="8" width="4" height="4" fill="#000000" />
<rect x="60" y="8" width="4" height="4" fill="#2B2B2B" />
<rect x="64" y="8" width="4" height="4" fill="#000000" />
<rect x="68" y="8" width="4" height="4" fill="#000000" />
<rect x="72" y="8" width="4" height="4" fill="#000000" />
<rect x="76" y="8" width="4" height="4" fill="#2B2B2B" />
<rect x="80" y="8" width="4" height="4" fill="#000000" />
<rect x="44" y="12" width="4" height="4" fill="#000000" />
<rect x="48" y="12" width="4" height="4" fill="#2B2B2B" />
<rect x="52" y="12" width="4" height="4" fill="#2B2B2B" />
<rect x="56" y="12" width="4" height="4" fill="#1A1A1A" />
<rect x="60" y="12" width="4" height="4" fill="#1A1A1A" />
<rect x="64" y="12" width="4" height="4" fill="#1A1A1A" />
<rect x="68" y="12" width="4" height="4" fill="#000000" />
<rect x="72" y="12" width="4" height="4" fill="#1A1A1A" />
<rect x="76" y="12" width="4" height="4" fill="#1A1A1A" />
<rect x="80" y="12" width="4" height="4" fill="#0D0D0D" />
<rect x="84" y="12" width="4" height="4" fill="#000000" />
<rect x="40" y="16" width="4" height="4" fill="#000000" />
<rect x="44" y="16" width="4" height="4" fill="#2B2B2B" />
<rect x="48" y="16" width="4" height="4" fill="#000000" />
<rect x="52" y="16" width="4" height="4" fill="#1A1A1A" />
<rect x="56" y="16" width="4" height="4" fill="#1A1A1A" />
<rect x="60" y="16" width="4" height="4" fill="#1A1A1A" />
<rect x="64" y="16" width="4" height="4" fill="#000000" />
<rect x="68" y="16" width="4" height="4" fill="#1A1A1A" />
<rect x="72" y="16" width="4" height="4" fill="#1A1A1A" />
<rect x="76" y="16" width="4" height="4" fill="#000000" />
<rect x="80" y="16" width="4" height="4" fill="#0D0D0D" />
<rect x="84" y="16" width="4" height="4" fill="#000000" />
<rect x="88" y="16" width="4" height="4" fill="#000000" />
<rect x="36" y="20" width="4" height="4" fill="#000000" />
<rect x="40" y="20" width="4" height="4" fill="#2B2B2B" />
<rect x="44" y="20" width="4" height="4" fill="#1A1A1A" />
<rect x="48" y="20" width="4" height="4" fill="#1A1A1A" />
<rect x="52" y="20" width="4" height="4" fill="#000000" />
<rect x="56" y="20" width="4" height="4" fill="#1A1A1A" />
<rect x="60" y="20" width="4" height="4" fill="#1A1A1A" />
<rect x="64" y="20" width="4" height="4" fill="#0D0D0D" />
<rect x="68" y="20" width="4" height="4" fill="#0D0D0D" />
<rect x="72" y="20" width="4" height="4" fill="#000000" />
<rect x="76" y="20" width="4" height="4" fill="#0D0D0D" />
<rect x="80" y="20" width="4" height="4" fill="#000000" />
<rect x="84" y="20" width="4" height="4" fill="#0D0D0D" />
<rect x="88" y="20" width="4" height="4" fill="#000000" />
<rect x="92" y="20" width="4" height="4" fill="#000000" />
<rect x="32" y="24" width="4" height="4" fill="#000000" />
<rect x="36" y="24" width="4" height="4" fill="#000000" />
<rect x="40" y="24" width="4" height="4" fill="#000000" />
<rect x="44" y="24" width="4" height="4" fill="#000000" />
<rect x="48" y="24" width="4" height="4" fill="#000000" />
<rect x="52" y="24" width="4" height="4" fill="#000000" />
<rect x="56" y="24" width="4" height="4" fill="#000000" />
<rect x="60" y="24" width="4" height="4" fill="#000000" />
<rect x="64" y="24" width="4" height="4" fill="#000000" />
<rect x="68" y="24" width="4" height="4" fill="#000000" />
<rect x="72" y="24" width="4" height="4" fill="#000000" />
<rect x="76" y="24" width="4" height="4" fill="#000000" />
<rect x="80" y="24" width="4" height="4" fill="#000000" />
<rect x="84" y="24" width="4" height="4" fill="#000000" />
<rect x="88" y="24" width="4" height="4" fill="#000000" />
<rect x="92" y="24" width="4" height="4" fill="#000000" />
<rect x="96" y="24" width="4" height="4" fill="#000000" />
<rect x="32" y="28" width="4" height="4" fill="#000000" />
<rect x="36" y="28" width="4" height="4" fill="#CF0000" />
<rect x="40" y="28" width="4" height="4" fill="#CF0000" />
<rect x="44" y="28" width="4" height="4" fill="#CF0000" />
<rect x="48" y="28" width="4" height="4" fill="#CF0000" />
<rect x="52" y="28" width="4" height="4" fill="#CF0000" />
<rect x="56" y="28" width="4" height="4" fill="#BA0000" />
<rect x="60" y="28" width="4" height="4" fill="#BA0000" />
<rect x="64" y="28" width="4" height="4" fill="#BA0000" />
<rect x="68" y="28" width="4" height="4" fill="#BA0000" />
<rect x="72" y="28" width="4" height="4" fill="#BA0000" />
<rect x="76" y="28" width="4" height="4" fill="#BA0000" />
<rect x="80" y="28" width="4" height="4" fill="#BA0000" />
<rect x="84" y="28" width="4" height="4" fill="#BA0000" />
<rect x="88" y="28" width="4" height="4" fill="#BA0000" />
<rect x="92" y="28" width="4" height="4" fill="#BA0000" />
<rect x="96" y="28" width="4" height="4" fill="#000000" />
<rect x="32" y="32" width="4" height="4" fill="#000000" />
<rect x="36" y="32" width="4" height="4" fill="#BA0000" />
<rect x="40" y="32" width="4" height="4" fill="#BA0000" />
<rect x="44" y="32" width="4" height="4" fill="#BA0000" />
<rect x="48" y="32" width="4" height="4" fill="#BA0000" />
<rect x="52" y="32" width="4" height="4" fill="#BA0000" />
<rect x="56" y="32" width="4" height="4" fill="#BA0000" />
<rect x="60" y="32" width="4" height="4" fill="#BA0000" />
<rect x="64" y="32" width="4" height="4" fill="#BA0000" />
<rect x="68" y="32" width="4" height="4" fill="#BA0000" />
<rect x="72" y="32" width="4" height="4" fill="#BA0000" />
<rect x="76" y="32" width="4" height="4" fill="#BA0000" />
<rect x="80" y="32" width="4" height="4" fill="#BA0000" />
<rect x="84" y="32" width="4" height="4" fill="#BA0000" />
<rect x="88" y="32" width="4" height="4" fill="#BA0000" />
<rect x="92" y="32" width="4" height="4" fill="#BA0000" />
<rect x="96" y="32" width="4" height="4" fill="#000000" />
<rect x="32" y="36" width="4" height="4" fill="#000000" />
<rect x="36" y="36" width="4" height="4" fill="#BA0000" />
<rect x="40" y="36" width="4" height="4" fill="#BA0000" />
<rect x="44" y="36" width="4" height="4" fill="#BA0000" />
<rect x="48" y="36" width="4" height="4" fill="#BA0000" />
<rect x="52" y="36" width="4" height="4" fill="#BA0000" />
<rect x="56" y="36" width="4" height="4" fill="#BA0000" />
<rect x="60" y="36" width="4" height="4" fill="#BA0000" />
<rect x="64" y="36" width="4" height="4" fill="#A90000" />
<rect x="68" y="36" width="4" height="4" fill="#A90000" />
<rect x="72" y="36" width="4" height="4" fill="#A90000" />
<rect x="76" y="36" width="4" height="4" fill="#A90000" />
<rect x="80" y="36" width="4" height="4" fill="#A90000" />
<rect x="84" y="36" width="4" height="4" fill="#A90000" />
<rect x="88" y="36" width="4" height="4" fill="#A90000" />
<rect x="92" y="36" width="4" height="4" fill="#A90000" />
<rect x="96" y="36" width="4" height="4" fill="#000000" />
<rect x="36" y="40" width="4" height="4" fill="#000000" />
<rect x="40" y="40" width="4" height="4" fill="#A90000" />
<rect x="44" y="40" width="4" height="4" fill="#A90000" />
<rect x="48" y="40" width="4" height="4" fill="#A90000" />
<rect x="52" y="40" width="4" height="4" fill="#A90000" />
<rect x="56" y="40" width="4" height="4" fill="#A90000" />
<rect x="60" y="40" width="4" height="4" fill="#A90000" />
<rect x="64" y="40" width="4" height="4" fill="#A90000" />
<rect x="68" y="40" width="4" height="4" fill="#A90000" />
<rect x="72" y="40" width="4" height="4" fill="#A90000" />
<rect x="76" y="40" width="4" height="4" fill="#A90000" />
<rect x="80" y="40" width="4" height="4" fill="#A90000" />
<rect x="84" y="40" width="4" height="4" fill="#A90000" />
<rect x="88" y="40" width="4" height="4" fill="#A90000" />
<rect x="92" y="40" width="4" height="4" fill="#000000" />
<rect x="36" y="44" width="4" height="4" fill="#000000" />
<rect x="40" y="44" width="4" height="4" fill="#A90000" />
<rect x="44" y="44" width="4" height="4" fill="#A90000" />
<rect x="48" y="44" width="4" height="4" fill="#A90000" />
<rect x="52" y="44" width="4" height="4" fill="#A90000" />
<rect x="56" y="44" width="4" height="4" fill="#A90000" />
<rect x="60" y="44" width="4" height="4" fill="#A90000" />
<rect x="64" y="44" width="4" height="4" fill="#A90000" />
<rect x="68" y="44" width="4" height="4" fill="#A90000" />
<rect x="72" y="44" width="4" height="4" fill="#A90000" />
<rect x="76" y="44" width="4" height="4" fill="#A90000" />
<rect x="80" y="44" width="4" height="4" fill="#A90000" />
<rect x="84" y="44" width="4" height="4" fill="#930202" />
<rect x="88" y="44" width="4" height="4" fill="#930202" />
<rect x="92" y="44" width="4" height="4" fill="#000000" />
<rect x="36" y="48" width="4" height="4" fill="#000000" />
<rect x="40" y="48" width="4" height="4" fill="#930202" />
<rect x="44" y="48" width="4" height="4" fill="#000000" />
<rect x="48" y="48" width="4" height="4" fill="#000000" />
<rect x="52" y="48" width="4" height="4" fill="#930202" />
<rect x="56" y="48" width="4" height="4" fill="#930202" />
<rect x="60" y="48" width="4" height="4" fill="#930202" />
<rect x="64" y="48" width="4" height="4" fill="#930202" />
<rect x="68" y="48" width="4" height="4" fill="#930202" />
<rect x="72" y="48" width="4" height="4" fill="#930202" />
<rect x="76" y="48" width="4" height="4" fill="#930202" />
<rect x="80" y="48" width="4" height="4" fill="#000000" />
<rect x="84" y="48" width="4" height="4" fill="#000000" />
<rect x="88" y="48" width="4" height="4" fill="#930202" />
<rect x="92" y="48" width="4" height="4" fill="#000000" />
<rect x="36" y="52" width="4" height="4" fill="#000000" />
<rect x="40" y="52" width="4" height="4" fill="#000000" />
<rect x="44" y="52" width="4" height="4" fill="#63615E" />
<rect x="48" y="52" width="4" height="4" fill="#63615E" />
<rect x="52" y="52" width="4" height="4" fill="#000000" />
<rect x="56" y="52" width="4" height="4" fill="#000000" />
<rect x="60" y="52" width="4" height="4" fill="#000000" />
<rect x="64" y="52" width="4" height="4" fill="#000000" />
<rect x="68" y="52" width="4" height="4" fill="#000000" />
<rect x="72" y="52" width="4" height="4" fill="#000000" />
<rect x="76" y="52" width="4" height="4" fill="#000000" />
<rect x="80" y="52" width="4" height="4" fill="#63615E" />
<rect x="84" y="52" width="4" height="4" fill="#63615E" />
<rect x="88" y="52" width="4" height="4" fill="#000000" />
<rect x="92" y="52" width="4" height="4" fill="#000000" />
<rect x="40" y="56" width="4" height="4" fill="#000000" />
<rect x="44" y="56" width="4" height="4" fill="#63615E" />
<rect x="48" y="56" width="4" height="4" fill="#595652" />
<rect x="52" y="56" width="4" height="4" fill="#000000" />
<rect x="76" y="56" width="4" height="4" fill="#000000" />
<rect x="80" y="56" width="4" height="4" fill="#63615E" />
<rect x="84" y="56" width="4" height="4" fill="#595652" />
<rect x="88" y="56" width="4" height="4" fill="#000000" />
<rect x="44" y="60" width="4" height="4" fill="#000000" />
<rect x="48" y="60" width="4" height="4" fill="#000000" />
<rect x="80" y="60" width="4" height="4" fill="#000000" />
<rect x="84" y="60" width="4" height="4" fill="#000000" />
</svg>