<?xml version="1.0" encoding="UTF-8" ?>
<svg version="1.1" width="96" height="96" xmlns="http://www.w3.org/2000/svg" shape-rendering="crispEdges">
<rect x="33" y="9" width="3" height="3" fill="#000000" />
<rect x="36" y="9" width="3" height="3" fill="#000000" />
<rect x="39" y="9" width="3" height="3" fill="#000000" />
<rect x="42" y="9" width="3" height="3" fill="#000000" />
<rect x="45" y="9" width="3" height="3" fill="#000000" />
<rect x="48" y="9" width="3" height="3" fill="#000000" />
<rect x="51" y="9" width="3" height="3" fill="#000000" />
<rect x="54" y="9" width="3" height="3" fill="#000000" />
<rect x="57" y="9" width="3" height="3" fill="#000000" />
<rect x="60" y="9" width="3" height="3" fill="#000000" />
<rect x="63" y="9" width="3" height="3" fill="#000000" />
<rect x="66" y="9" width="3" height="3" fill="#000000" />
<rect x="69" y="9" width="3" height="3" fill="#000000" />
<rect x="72" y="9" width="3" height="3" fill="#000000" />
<rect x="75" y="9" width="3" height="3" fill="#000000" />
<rect x="33" y="12" width="3" height="3" fill="#000000" />
<rect x="36" y="12" width="3" height="3" fill="#BABABA" />
<rect x="39" y="12" width="3" height="3" fill="#BABABA" />
<rect x="42" y="12" width="3" height="3" fill="#BABABA" />
<rect x="45" y="12" width="3" height="3" fill="#A0A0A0" />
<rect x="48" y="12" width="3" height="3" fill="#A0A0A0" />
<rect x="51" y="12" width="3" height="3" fill="#A0A0A0" />
<rect x="54" y="12" width="3" height="3" fill="#A0A0A0" />
<rect x="57" y="12" width="3" height="3" fill="#A0A0A0" />
<rect x="60" y="12" width="3" height="3" fill="#A0A0A0" />
<rect x="63" y="12" width="3" height="3" fill="#969397" />
<rect x="66" y="12" width="3" height="3" fill="#969397" />
<rect x="69" y="12" width="3" height="3" fill="#969397" />
<rect x="72" y="12" width="3" height="3" fill="#969397" />
<rect x="75" y="12" width="3" height="3" fill="#000000" />
<rect x="33" y="15" width="3" height="3" fill="#000000" />
<rect x="36" y="15" width="3" height="3" fill="#000000" />
<rect x="39" y="15" width="3" height="3" fill="#000000" />
<rect x="42" y="15" width="3" height="3" fill="#000000" />
<rect x="45" y="15" width="3" height="3" fill="#A0A0A0" />
<rect x="48" y="15" width="3" height="3" fill="#A0A0A0" />
<rect x="51" y="15" width="3" height="3" fill="#000000" />
<rect x="54" y="15" width="3" height="3" fill="#000000" />
<rect x="57" y="15" width="3" height="3" fill="#000000" />
<rect x="60" y="15" width="3" height="3" fill="#969397" />
<rect x="63" y="15" width="3" height="3" fill="#000000" />
<rect x="66" y="15" width="3" height="3" fill="#000000" />
<rect x="69" y="15" width="3" height="3" fill="#000000" />
<rect x="72" y="15" width="3" height="3" fill="#000000" />
<rect x="75" y="15" width="3" height="3" fill="#000000" />
<rect x="33" y="18" width="3" height="3" fill="#000000" />
<rect x="36" y="18" width="3" height="3" fill="#000000" />
<rect x="39" y="18" width="3" height="3" fill="#FFFFFF" />
<rect x="42" y="18" width="3" height="3" fill="#000000" />
<rect x="45" y="18" width="3" height="3" fill="#A0A0A0" />
<rect x="48" y="18" width="3" height="3" fill="#969397" />
<rect x="51" y="18" width="3" height="3" fill="#000000" />
<rect x="54" y="18" width="3" height="3" fill="#FFFFFF" />
<rect x="57" y="18" width="3" height="3" fill="#000000" />
<rect x="60" y="18" width="3" height="3" fill="#969397" />
<rect x="63" y="18" width="3" height="3" fill="#000000" />
<rect x="33" y="21" width="3" height="3" fill="#000000" />
<rect x="36" y="21" width="3" height="3" fill="#A0A0A0" />
<rect x="39" y="21" width="3" height="3" fill="#000000" />
<rect x="42" y="21" width="3" height="3" fill="#A0A0A0" />
<rect x="45" y="21" width="3" height="3" fill="#969397" />
<rect x="48" y="21" width="3" height="3" fill="#969397" />
<rect x="51" y="21" width="3" height="3" fill="#969397" />
<rect x="54" y="21" width="3" height="3" fill="#000000" />
<rect x="57" y="21" width="3" height="3" fill="#969397" />
<rect x="60" y="21" width="3" height="3" fill="#969397" />
<rect x="63" y="21" width="3" height="3" fill="#000000" />
<rect x="66" y="21" width="3" height="3" fill="#000000" />
<rect x="69" y="21" width="3" height="3" fill="#000000" />
<rect x="33" y="24" width="3" height="3" fill="#000000" />
<rect x="36" y="24" width="3" height="3" fill="#A0A0A0" />
<rect x="39" y="24" width="3" height="3" fill="#A0A0A0" />
<rect x="42" y="24" width="3" height="3" fill="#969397" />
<rect x="45" y="24" width="3" height="3" fill="#969397" />
<rect x="48" y="24" width="3" height="3" fill="#969397" />
<rect x="51" y="24" width="3" height="3" fill="#969397" />
<rect x="54" y="24" width="3" height="3" fill="#969397" />
<rect x="57" y="24" width="3" height="3" fill="#969397" />
<rect x="60" y="24" width="3" height="3" fill="#969397" />
<rect x="63" y="24" width="3" height="3" fill="#969397" />
<rect x="66" y="24" width="3" height="3" fill="#969397" />
<rect x="69" y="24" width="3" height="3" fill="#000000" />
<rect x="33" y="27" width="3" height="3" fill="#000000" />
<rect x="36" y="27" width="3" height="3" fill="#969397" />
<rect x="39" y="27" width="3" height="3" fill="#969397" />
<rect x="42" y="27" width="3" height="3" fill="#969397" />
<rect x="45" y="27" width="3" height="3" fill="#969397" />
<rect x="48" y="27" width="3" height="3" fill="#969397" />
<rect x="51" y="27" width="3" height="3" fill="#969397" />
<rect x="54" y="27" width="3" height="3" fill="#969397" />
<rect x="57" y="27" width="3" height="3" fill="#969397" />
<rect x="60" y="27" width="3" height="3" fill="#000000" />
<rect x="63" y="27" width="3" height="3" fill="#000000" />
<rect x="66" y="27" width="3" height="3" fill="#000000" />
<rect x="69" y="27" width="3" height="3" fill="#000000" />
<rect x="36" y="30" width="3" height="3" fill="#000000" />
<rect x="39" y="30" width="3" height="3" fill="#969397" />
<rect x="42" y="30" width="3" height="3" fill="#000000" />
<rect x="45" y="30" width="3" height="3" fill="#000000" />
<rect x="48" y="30" width="3" height="3" fill="#000000" />
<rect x="51" y="30" width="3" height="3" fill="#000000" />
<rect x="54" y="30" width="3" height="3" fill="#969397" />
<rect x="57" y="30" width="3" height="3" fill="#000000" />
<rect x="36" y="33" width="3" height="3" fill="#000000" />
<rect x="39" y="33" width="3" height="3" fill="#969397" />
<rect x="42" y="33" width="3" height="3" fill="#969397" />
<rect x="45" y="33" width="3" height="3" fill="#969397" />
<rect x="48" y="33" width="3" height="3" fill="#969397" />
<rect x="51" y="33" width="3" height="3" fill="#969397" />
<rect x="54" y="33" width="3" height="3" fill="#969397" />
<rect x="57" y="33" width="3" height="3" fill="#000000" />
<rect x="60" y="33" width="3" height="3" fill="#000000" />
<rect x="63" y="33" width="3" height="3" fill="#000000" />
<rect x="66" y="33" width="3" height="3" fill="#000000" />
<rect x="69" y="33" width="3" height="3" fill="#000000" />
<rect x="72" y="33" width="3" height="3" fill="#000000" />
<rect x="75" y="33" width="3" height="3" fill="#000000" />
<rect x="78" y="33" width="3" height="3" fill="#000000" />
<rect x="39" y="36" width="3" height="3" fill="#000000" />
<rect x="42" y="36" width="3" height="3" fill="#969397" />
<rect x="45" y="36" width="3" height="3" fill="#969397" />
<rect x="48" y="36" width="3" height="3" fill="#969397" />
<rect x="51" y="36" width="3" height="3" fill="#969397" />
<rect x="54" y="36" width="3" height="3" fill="#8A8A8A" />
<rect x="57" y="36" width="3" height="3" fill="#8A8A8A" />
<rect x="60" y="36" width="3" height="3" fill="#8A8A8A" />
<rect x="63" y="36" width="3" height="3" fill="#8A8A8A" />
<rect x="66" y="36" width="3" height="3" fill="#8A8A8A" />
<rect x="69" y="36" width="3" height="3" fill="#8A8A8A" />
<rect x="72" y="36" width="3" height="3" fill="#8A8A8A" />
<rect x="75" y="36" width="3" height="3" fill="#8A8A8A" />
<rect x="78" y="36" width="3" height="3" fill="#000000" />
<rect x="39" y="39" width="3" height="3" fill="#000000" />
<rect x="42" y="39" width="3" height="3" fill="#969397" />
<rect x="45" y="39" width="3" height="3" fill="#969397" />
<rect x="48" y="39" width="3" height="3" fill="#969397" />
<rect x="51" y="39" width="3" height="3" fill="#8A8A8A" />
<rect x="54" y="39" width="3" height="3" fill="#000000" />
<rect x="57" y="39" width="3" height="3" fill="#000000" />
<rect x="60" y="39" width="3" height="3" fill="#000000" />
<rect x="63" y="39" width="3" height="3" fill="#000000" />
<rect x="66" y="39" width="3" height="3" fill="#000000" />
<rect x="69" y="39" width="3" height="3" fill="#000000" />
<rect x="72" y="39" width="3" height="3" fill="#000000" />
<rect x="75" y="39" width="3" height="3" fill="#000000" />
<rect x="78" y="39" width="3" height="3" fill="#000000" />
<rect x="39" y="42" width="3" height="3" fill="#000000" />
<rect x="42" y="42" width="3" height="3" fill="#969397" />
<rect x="45" y="42" width="3" height="3" fill="#8A8A8A" />
<rect x="48" y="42" width="3" height="3" fill="#8A8A8A" />
<rect x="51" y="42" width="3" height="3" fill="#8A8A8A" />
<rect x="54" y="42" width="3" height="3" fill="#000000" />
<rect x="42" y="45" width="3" height="3" fill="#000000" />
<rect x="45" y="45" width="3" height="3" fill="#000000" />
<rect x="48" y="45" width="3" height="3" fill="#000000" />
<rect x="51" y="45" width="3" height="3" fill="#000000" />
<rect x="36" y="48" width="3" height="3" fill="#000000" />
<rect x="39" y="48" width="3" height="3" fill="#000000" />
<rect x="42" y="48" width="3" height="3" fill="#383232" />
<rect x="45" y="48" width="3" height="3" fill="#342D2D" />
<rect x="48" y="48" width="3" height="3" fill="#342D2D" />
<rect x="51" y="48" width="3" height="3" fill="#302929" />
<rect x="54" y="48" width="3" height="3" fill="#000000" />
<rect x="57" y="48" width="3" height="3" fill="#000000" />
<rect x="33" y="51" width="3" height="3" fill="#000000" />
<rect x="36" y="51" width="3" height="3" fill="#383232" />
<rect x="39" y="51" width="3" height="3" fill="#383232" />
<rect x="42" y="51" width="3" height="3" fill="#342D2D" />
<rect x="45" y="51" width="3" height="3" fill="#342D2D" />
<rect x="48" y="51" width="3" height="3" fill="#302929" />
<rect x="51" y="51" width="3" height="3" fill="#302929" />
<rect x="54" y="51" width="3" height="3" fill="#302929" />
<rect x="57" y="51" width="3" height="3" fill="#302929" />
<rect x="60" y="51" width="3" height="3" fill="#000000" />
<rect x="30" y="54" width="3" height="3" fill="#000000" />
<rect x="33" y="54" width="3" height="3" fill="#383232" />
<rect x="36" y="54" width="3" height="3" fill="#342D2D" />
<rect x="39" y="54" width="3" height="3" fill="#000000" />
<rect x="42" y="54" width="3" height="3" fill="#342D2D" />
<rect x="45" y="54" width="3" height="3" fill="#302929" />
<rect x="48" y="54" width="3" height="3" fill="#302929" />
<rect x="51" y="54" width="3" height="3" fill="#302929" />
<rect x="54" y="54" width="3" height="3" fill="#000000" />
<rect x="57" y="54" width="3" height="3" fill="#272222" />
<rect x="60" y="54" width="3" height="3" fill="#272222" />
<rect x="63" y="54" width="3" height="3" fill="#000000" />
<rect x="30" y="57" width="3" height="3" fill="#000000" />
<rect x="33" y="57" width="3" height="3" fill="#342D2D" />
<rect x="36" y="57" width="3" height="3" fill="#000000" />
<rect x="39" y="57" width="3" height="3" fill="#000000" />
<rect x="42" y="57" width="3" height="3" fill="#302929" />
<rect x="45" y="57" width="3" height="3" fill="#302929" />
<rect x="48" y="57" width="3" height="3" fill="#302929" />
<rect x="51" y="57" width="3" height="3" fill="#272222" />
<rect x="54" y="57" width="3" height="3" fill="#000000" />
<rect x="57" y="57" width="3" height="3" fill="#000000" />
<rect x="60" y="57" width="3" height="3" fill="#272222" />
<rect x="63" y="57" width="3" height="3" fill="#000000" />
<rect x="30" y="60" width="3" height="3" fill="#000000" />
<rect x="33" y="60" width="3" height="3" fill="#302929" />
<rect x="36" y="60" width="3" height="3" fill="#000000" />
<rect x="39" y="60" width="3" height="3" fill="#302929" />
<rect x="42" y="60" width="3" height="3" fill="#272222" />
<rect x="45" y="60" width="3" height="3" fill="#302929" />
<rect x="48" y="60" width="3" height="3" fill="#302929" />
<rect x="51" y="60" width="3" height="3" fill="#302929" />
<rect x="54" y="60" width="3" height="3" fill="#272222" />
<rect x="57" y="60" width="3" height="3" fill="#000000" />
<rect x="60" y="60" width="3" height="3" fill="#1E1A1A" />
<rect x="63" y="60" width="3" height="3" fill="#000000" />
<rect x="30" y="63" width="3" height="3" fill="#000000" />
<rect x="33" y="63" width="3" height="3" fill="#969397" />
<rect x="36" y="63" width="3" height="3" fill="#000000" />
<rect x="39" y="63" width="3" height="3" fill="#302929" />
<rect x="42" y="63" width="3" height="3" fill="#272222" />
<rect x="45" y="63" width="3" height="3" fill="#1E1A1A" />
<rect x="48" y="63" width="3" height="3" fill="#302929" />
<rect x="51" y="63" width="3" height="3" fill="#302929" />
<rect x="54" y="63" width="3" height="3" fill="#272222" />
<rect x="57" y="63" width="3" height="3" fill="#000000" />
<rect x="60" y="63" width="3" height="3" fill="#969397" />
<rect x="63" y="63" width="3" height="3" fill="#000000" />
<rect x="33" y="66" width="3" height="3" fill="#000000" />
<rect x="36" y="66" width="3" height="3" fill="#302929" />
<rect x="39" y="66" width="3" height="3" fill="#302929" />
<rect x="42" y="66" width="3" height="3" fill="#272222" />
<rect x="45" y="66" width="3" height="3" fill="#1E1A1A" />
<rect x="48" y="66" width="3" height="3" fill="#272222" />
<rect x="51" y="66" width="3" height="3" fill="#302929" />
<rect x="54" y="66" width="3" height="3" fill="#302929" />
<rect x="57" y="66" width="3" height="3" fill="#302929" />
<rect x="60" y="66" width="3" height="3" fill="#000000" />
<rect x="33" y="69" width="3" height="3" fill="#000000" />
<rect x="36" y="69" width="3" height="3" fill="#302929" />
<rect x="39" y="69" width="3" height="3" fill="#272222" />
<rect x="42" y="69" width="3" height="3" fill="#1E1A1A" />
<rect x="45" y="69" width="3" height="3" fill="#1E1A1A" />
<rect x="48" y="69" width="3" height="3" fill="#272222" />
<rect x="51" y="69" width="3" height="3" fill="#302929" />
<rect x="54" y="69" width="3" height="3" fill="#302929" />
<rect x="57" y="69" width="3" height="3" fill="#302929" />
<rect x="60" y="69" width="3" height="3" fill="#000000" />
<rect x="33" y="72" width="3" height="3" fill="#000000" />
<rect x="36" y="72" width="3" height="3" fill="#302929" />
<rect x="39" y="72" width="3" height="3" fill="#272222" />
<rect x="42" y="72" width="3" height="3" fill="#1E1A1A" />
<rect x="45" y="72" width="3" height="3" fill="#302929" />
<rect x="48" y="72" width="3" height="3" fill="#1E1A1A" />
<rect x="51" y="72" width="3" height="3" fill="#272222" />
<rect x="54" y="72" width="3" height="3" fill="#302929" />
<rect x="57" y="72" width="3" height="3" fill="#302929" />
<rect x="60" y="72" width="3" height="3" fill="#000000" />
<rect x="33" y="75" width="3" height="3" fill="#000000" />
<rect x="36" y="75" width="3" height="3" fill="#272222" />
<rect x="39" y="75" width="3" height="3" fill="#1E1A1A" />
<rect x="42" y="75" width="3" height="3" fill="#302929" />
<rect x="45" y="75" width="3" height="3" fill="#302929" />
<rect x="48" y="75" width="3" height="3" fill="#1E1A1A" />
<rect x="51" y="75" width="3" height="3" fill="#272222" />
<rect x="54" y="75" width="3" height="3" fill="#302929" />
<rect x="57" y="75" width="3" height="3" fill="#302929" />
<rect x="60" y="75" width="3" height="3" fill="#000000" />
<rect x="36" y="78" width="3" height="3" fill="#000000" />
<rect x="39" y="78" width="3" height="3" fill="#000000" />
<rect x="42" y="78" width="3" height="3" fill="#000000" />
<rect x="45" y="78" width="3" height="3" fill="#000000" />
<rect x="48" y="78" width="3" height="3" fill="#000000" />
<rect x="51" y="78" width="3" height="3" fill="#000000" />
<rect x="54" y="78" width="3" height="3" fill="#000000" />
<rect x="57" y="78" width="3" height="3" fill="#000000" />
<rect x="36" y="81" width="3" height="3" fill="#000000" />
<rect x="39" y="81" width="3" height="3" fill="#302929" />
<rect x="42" y="81" width="3" height="3" fill="#000000" />
<rect x="48" y="81" width="3" height="3" fill="#000000" />
<rect x="51" y="81" width="3" height="3" fill="#302929" />
<rect x="54" y="81" width="3" height="3" fill="#000000" />
<rect x="33" y="84" width="3" height="3" fill="#000000" />
<rect x="36" y="84" width="3" height="3" fill="#969397" />
<rect x="39" y="84" width="3" height="3" fill="#969397" />
<rect x="42" y="84" width="3" height="3" fill="#000000" />
<rect x="48" y="84" width="3" height="3" fill="#000000" />
<rect x="51" y="84" width="3" height="3" fill="#969397" />
<rect x="54" y="84" width="3" height="3" fill="#969397" />
<rect x="57" y="84" width="3" height="3" fill="#000000" />
<rect x="30" y="87" width="3" height="3" fill="#000000" />
<rect x="33" y="87" width="3" height="3" fill="#000000" />
<rect x="36" y="87" width="3" height="3" fill="#000000" />
<rect x="39" y="87" width="3" height="3" fill="#000000" />
<rect x="42" y="87" width="3" height="3" fill="#000000" />
<rect x="48" y="87" width="3" height="3" fill="#000000" />
<rect x="51" y="87" width="3" height="3" fill="#000000" />
<rect x="54" y="87" width="3" height="3" fill="#000000" />
<rect x="57" y="87" width="3" height="3" fill="#000000" />
<rect x="60" y="87" width="3" height="3" fill="#000000" />
</svg>