<?xml version="1.0" encoding="UTF-8" ?>
<svg version="1.1" width="96" height="96" xmlns="http://www.w3.org/2000/svg" shape-rendering="crispEdges">
<rect x="39" y="9" width="3" height="3" fill="#000000" />
<rect x="42" y="9" width="3" height="3" fill="#000000" />
<rect x="45" y="9" width="3" height="3" fill="#000000" />
<rect x="48" y="9" width="3" height="3" fill="#000000" />
<rect x="51" y="9" width="3" height="3" fill="#000000" />
<rect x="54" y="9" width="3" height="3" fill="#000000" />
<rect x="57" y="9" width="3" height="3" fill="#000000" />
<rect x="60" y="9" width="3" height="3" fill="#000000" />
<rect x="63" y="9" width="3" height="3" fill="#000000" />
<rect x="66" y="9" width="3" height="3" fill="#000000" />
<rect x="33" y="12" width="3" height="3" fill="#000000" />
<rect x="36" y="12" width="3" height="3" fill="#000000" />
<rect x="39" y="12" width="3" height="3" fill="#B6B6B6" />
<rect x="42" y="12" width="3" height="3" fill="#B6B6B6" />
<rect x="45" y="12" width="3" height="3" fill="#B6B6B6" />
<rect x="48" y="12" width="3" height="3" fill="#A9A4A4" />
<rect x="51" y="12" width="3" height="3" fill="#A9A4A4" />
<rect x="54" y="12" width="3" height="3" fill="#A9A4A4" />
<rect x="57" y="12" width="3" height="3" fill="#A9A4A4" />
<rect x="60" y="12" width="3" height="3" fill="#A9A4A4" />
<rect x="63" y="12" width="3" height="3" fill="#A9A4A4" />
<rect x="66" y="12" width="3" height="3" fill="#000000" />
<rect x="30" y="15" width="3" height="3" fill="#000000" />
<rect x="33" y="15" width="3" height="3" fill="#B6B6B6" />
<rect x="36" y="15" width="3" height="3" fill="#B6B6B6" />
<rect x="39" y="15" width="3" height="3" fill="#A9A4A4" />
<rect x="42" y="15" width="3" height="3" fill="#A9A4A4" />
<rect x="45" y="15" width="3" height="3" fill="#A9A4A4" />
<rect x="48" y="15" width="3" height="3" fill="#A9A4A4" />
<rect x="51" y="15" width="3" height="3" fill="#A9A4A4" />
<rect x="54" y="15" width="3" height="3" fill="#A09999" />
<rect x="57" y="15" width="3" height="3" fill="#000000" />
<rect x="60" y="15" width="3" height="3" fill="#000000" />
<rect x="63" y="15" width="3" height="3" fill="#000000" />
<rect x="66" y="15" width="3" height="3" fill="#000000" />
<rect x="27" y="18" width="3" height="3" fill="#000000" />
<rect x="30" y="18" width="3" height="3" fill="#B6B6B6" />
<rect x="33" y="18" width="3" height="3" fill="#B6B6B6" />
<rect x="36" y="18" width="3" height="3" fill="#A9A4A4" />
<rect x="39" y="18" width="3" height="3" fill="#A9A4A4" />
<rect x="42" y="18" width="3" height="3" fill="#A9A4A4" />
<rect x="45" y="18" width="3" height="3" fill="#A09999" />
<rect x="48" y="18" width="3" height="3" fill="#A09999" />
<rect x="51" y="18" width="3" height="3" fill="#A09999" />
<rect x="54" y="18" width="3" height="3" fill="#A09999" />
<rect x="57" y="18" width="3" height="3" fill="#000000" />
<rect x="27" y="21" width="3" height="3" fill="#000000" />
<rect x="30" y="21" width="3" height="3" fill="#B6B6B6" />
<rect x="33" y="21" width="3" height="3" fill="#A9A4A4" />
<rect x="36" y="21" width="3" height="3" fill="#A9A4A4" />
<rect x="39" y="21" width="3" height="3" fill="#000000" />
<rect x="42" y="21" width="3" height="3" fill="#A09999" />
<rect x="45" y="21" width="3" height="3" fill="#A09999" />
<rect x="48" y="21" width="3" height="3" fill="#000000" />
<rect x="51" y="21" width="3" height="3" fill="#A09999" />
<rect x="54" y="21" width="3" height="3" fill="#A09999" />
<rect x="57" y="21" width="3" height="3" fill="#000000" />
<rect x="60" y="21" width="3" height="3" fill="#000000" />
<rect x="63" y="21" width="3" height="3" fill="#000000" />
<rect x="66" y="21" width="3" height="3" fill="#000000" />
<rect x="69" y="21" width="3" height="3" fill="#000000" />
<rect x="27" y="24" width="3" height="3" fill="#000000" />
<rect x="30" y="24" width="3" height="3" fill="#B6B6B6" />
<rect x="33" y="24" width="3" height="3" fill="#A9A4A4" />
<rect x="36" y="24" width="3" height="3" fill="#000000" />
<rect x="39" y="24" width="3" height="3" fill="#FFFFFF" />
<rect x="42" y="24" width="3" height="3" fill="#A09999" />
<rect x="45" y="24" width="3" height="3" fill="#A09999" />
<rect x="48" y="24" width="3" height="3" fill="#FFFFFF" />
<rect x="51" y="24" width="3" height="3" fill="#000000" />
<rect x="54" y="24" width="3" height="3" fill="#A09999" />
<rect x="57" y="24" width="3" height="3" fill="#A09999" />
<rect x="60" y="24" width="3" height="3" fill="#A09999" />
<rect x="63" y="24" width="3" height="3" fill="#A09999" />
<rect x="66" y="24" width="3" height="3" fill="#A09999" />
<rect x="69" y="24" width="3" height="3" fill="#000000" />
<rect x="30" y="27" width="3" height="3" fill="#000000" />
<rect x="33" y="27" width="3" height="3" fill="#A9A4A4" />
<rect x="36" y="27" width="3" height="3" fill="#A09999" />
<rect x="39" y="27" width="3" height="3" fill="#A09999" />
<rect x="42" y="27" width="3" height="3" fill="#A09999" />
<rect x="45" y="27" width="3" height="3" fill="#A09999" />
<rect x="48" y="27" width="3" height="3" fill="#A09999" />
<rect x="51" y="27" width="3" height="3" fill="#A09999" />
<rect x="54" y="27" width="3" height="3" fill="#000000" />
<rect x="57" y="27" width="3" height="3" fill="#000000" />
<rect x="60" y="27" width="3" height="3" fill="#000000" />
<rect x="63" y="27" width="3" height="3" fill="#000000" />
<rect x="66" y="27" width="3" height="3" fill="#000000" />
<rect x="69" y="27" width="3" height="3" fill="#000000" />
<rect x="30" y="30" width="3" height="3" fill="#000000" />
<rect x="33" y="30" width="3" height="3" fill="#A09999" />
<rect x="36" y="30" width="3" height="3" fill="#000000" />
<rect x="39" y="30" width="3" height="3" fill="#A09999" />
<rect x="42" y="30" width="3" height="3" fill="#A09999" />
<rect x="45" y="30" width="3" height="3" fill="#A09999" />
<rect x="48" y="30" width="3" height="3" fill="#A09999" />
<rect x="51" y="30" width="3" height="3" fill="#A09999" />
<rect x="54" y="30" width="3" height="3" fill="#000000" />
<rect x="30" y="33" width="3" height="3" fill="#000000" />
<rect x="33" y="33" width="3" height="3" fill="#A09999" />
<rect x="36" y="33" width="3" height="3" fill="#A09999" />
<rect x="39" y="33" width="3" height="3" fill="#000000" />
<rect x="42" y="33" width="3" height="3" fill="#000000" />
<rect x="45" y="33" width="3" height="3" fill="#000000" />
<rect x="48" y="33" width="3" height="3" fill="#A09999" />
<rect x="51" y="33" width="3" height="3" fill="#A09999" />
<rect x="54" y="33" width="3" height="3" fill="#000000" />
<rect x="57" y="33" width="3" height="3" fill="#000000" />
<rect x="60" y="33" width="3" height="3" fill="#000000" />
<rect x="63" y="33" width="3" height="3" fill="#000000" />
<rect x="33" y="36" width="3" height="3" fill="#000000" />
<rect x="36" y="36" width="3" height="3" fill="#A09999" />
<rect x="39" y="36" width="3" height="3" fill="#A09999" />
<rect x="42" y="36" width="3" height="3" fill="#A09999" />
<rect x="45" y="36" width="3" height="3" fill="#A09999" />
<rect x="48" y="36" width="3" height="3" fill="#A09999" />
<rect x="51" y="36" width="3" height="3" fill="#A09999" />
<rect x="54" y="36" width="3" height="3" fill="#A09999" />
<rect x="57" y="36" width="3" height="3" fill="#A09999" />
<rect x="60" y="36" width="3" height="3" fill="#A09999" />
<rect x="63" y="36" width="3" height="3" fill="#000000" />
<rect x="36" y="39" width="3" height="3" fill="#000000" />
<rect x="39" y="39" width="3" height="3" fill="#A09999" />
<rect x="42" y="39" width="3" height="3" fill="#A09999" />
<rect x="45" y="39" width="3" height="3" fill="#A09999" />
<rect x="48" y="39" width="3" height="3" fill="#A09999" />
<rect x="51" y="39" width="3" height="3" fill="#A09999" />
<rect x="54" y="39" width="3" height="3" fill="#000000" />
<rect x="57" y="39" width="3" height="3" fill="#000000" />
<rect x="60" y="39" width="3" height="3" fill="#000000" />
<rect x="63" y="39" width="3" height="3" fill="#000000" />
<rect x="39" y="42" width="3" height="3" fill="#000000" />
<rect x="42" y="42" width="3" height="3" fill="#A09999" />
<rect x="45" y="42" width="3" height="3" fill="#A09999" />
<rect x="48" y="42" width="3" height="3" fill="#A09999" />
<rect x="51" y="42" width="3" height="3" fill="#000000" />
<rect x="27" y="45" width="3" height="3" fill="#000000" />
<rect x="30" y="45" width="3" height="3" fill="#000000" />
<rect x="42" y="45" width="3" height="3" fill="#000000" />
<rect x="45" y="45" width="3" height="3" fill="#A09999" />
<rect x="48" y="45" width="3" height="3" fill="#000000" />
<rect x="24" y="48" width="3" height="3" fill="#000000" />
<rect x="27" y="48" width="3" height="3" fill="#B6B6B6" />
<rect x="30" y="48" width="3" height="3" fill="#A9A4A4" />
<rect x="33" y="48" width="3" height="3" fill="#000000" />
<rect x="42" y="48" width="3" height="3" fill="#000000" />
<rect x="45" y="48" width="3" height="3" fill="#A09999" />
<rect x="48" y="48" width="3" height="3" fill="#000000" />
<rect x="27" y="51" width="3" height="3" fill="#000000" />
<rect x="30" y="51" width="3" height="3" fill="#D42222" />
<rect x="33" y="51" width="3" height="3" fill="#D42222" />
<rect x="36" y="51" width="3" height="3" fill="#000000" />
<rect x="39" y="51" width="3" height="3" fill="#000000" />
<rect x="42" y="51" width="3" height="3" fill="#A9A4A4" />
<rect x="45" y="51" width="3" height="3" fill="#A09999" />
<rect x="48" y="51" width="3" height="3" fill="#A09999" />
<rect x="51" y="51" width="3" height="3" fill="#000000" />
<rect x="54" y="51" width="3" height="3" fill="#000000" />
<rect x="30" y="54" width="3" height="3" fill="#000000" />
<rect x="33" y="54" width="3" height="3" fill="#D42222" />
<rect x="36" y="54" width="3" height="3" fill="#D42222" />
<rect x="39" y="54" width="3" height="3" fill="#D42222" />
<rect x="42" y="54" width="3" height="3" fill="#CFA715" />
<rect x="45" y="54" width="3" height="3" fill="#A09999" />
<rect x="48" y="54" width="3" height="3" fill="#CFA715" />
<rect x="51" y="54" width="3" height="3" fill="#D42222" />
<rect x="54" y="54" width="3" height="3" fill="#D42222" />
<rect x="57" y="54" width="3" height="3" fill="#000000" />
<rect x="33" y="57" width="3" height="3" fill="#000000" />
<rect x="36" y="57" width="3" height="3" fill="#000000" />
<rect x="39" y="57" width="3" height="3" fill="#000000" />
<rect x="42" y="57" width="3" height="3" fill="#D42222" />
<rect x="45" y="57" width="3" height="3" fill="#CFA715" />
<rect x="48" y="57" width="3" height="3" fill="#D42222" />
<rect x="51" y="57" width="3" height="3" fill="#000000" />
<rect x="54" y="57" width="3" height="3" fill="#D42222" />
<rect x="57" y="57" width="3" height="3" fill="#D42222" />
<rect x="60" y="57" width="3" height="3" fill="#000000" />
<rect x="39" y="60" width="3" height="3" fill="#000000" />
<rect x="42" y="60" width="3" height="3" fill="#BA1818" />
<rect x="45" y="60" width="3" height="3" fill="#C21919" />
<rect x="48" y="60" width="3" height="3" fill="#D42222" />
<rect x="51" y="60" width="3" height="3" fill="#000000" />
<rect x="54" y="60" width="3" height="3" fill="#000000" />
<rect x="57" y="60" width="3" height="3" fill="#BA1818" />
<rect x="60" y="60" width="3" height="3" fill="#000000" />
<rect x="39" y="63" width="3" height="3" fill="#000000" />
<rect x="42" y="63" width="3" height="3" fill="#C21919" />
<rect x="45" y="63" width="3" height="3" fill="#D42222" />
<rect x="48" y="63" width="3" height="3" fill="#D42222" />
<rect x="51" y="63" width="3" height="3" fill="#000000" />
<rect x="54" y="63" width="3" height="3" fill="#000000" />
<rect x="57" y="63" width="3" height="3" fill="#C21919" />
<rect x="60" y="63" width="3" height="3" fill="#000000" />
<rect x="39" y="66" width="3" height="3" fill="#000000" />
<rect x="42" y="66" width="3" height="3" fill="#D42222" />
<rect x="45" y="66" width="3" height="3" fill="#BA1818" />
<rect x="48" y="66" width="3" height="3" fill="#C21919" />
<rect x="51" y="66" width="3" height="3" fill="#000000" />
<rect x="54" y="66" width="3" height="3" fill="#000000" />
<rect x="57" y="66" width="3" height="3" fill="#A09999" />
<rect x="60" y="66" width="3" height="3" fill="#000000" />
<rect x="39" y="69" width="3" height="3" fill="#000000" />
<rect x="42" y="69" width="3" height="3" fill="#D42222" />
<rect x="45" y="69" width="3" height="3" fill="#BA1818" />
<rect x="48" y="69" width="3" height="3" fill="#C21919" />
<rect x="51" y="69" width="3" height="3" fill="#000000" />
<rect x="57" y="69" width="3" height="3" fill="#000000" />
<rect x="36" y="72" width="3" height="3" fill="#000000" />
<rect x="39" y="72" width="3" height="3" fill="#D42222" />
<rect x="42" y="72" width="3" height="3" fill="#D42222" />
<rect x="45" y="72" width="3" height="3" fill="#BA1818" />
<rect x="48" y="72" width="3" height="3" fill="#C21919" />
<rect x="51" y="72" width="3" height="3" fill="#D42222" />
<rect x="54" y="72" width="3" height="3" fill="#000000" />
<rect x="36" y="75" width="3" height="3" fill="#000000" />
<rect x="39" y="75" width="3" height="3" fill="#C21919" />
<rect x="42" y="75" width="3" height="3" fill="#BA1818" />
<rect x="45" y="75" width="3" height="3" fill="#C21919" />
<rect x="48" y="75" width="3" height="3" fill="#D42222" />
<rect x="51" y="75" width="3" height="3" fill="#D42222" />
<rect x="54" y="75" width="3" height="3" fill="#000000" />
<rect x="36" y="78" width="3" height="3" fill="#000000" />
<rect x="39" y="78" width="3" height="3" fill="#BA1818" />
<rect x="42" y="78" width="3" height="3" fill="#BA1818" />
<rect x="45" y="78" width="3" height="3" fill="#BA1818" />
<rect x="48" y="78" width="3" height="3" fill="#BA1818" />
<rect x="51" y="78" width="3" height="3" fill="#BA1818" />
<rect x="54" y="78" width="3" height="3" fill="#000000" />
<rect x="36" y="81" width="3" height="3" fill="#000000" />
<rect x="39" y="81" width="3" height="3" fill="#A09999" />
<rect x="42" y="81" width="3" height="3" fill="#000000" />
<rect x="45" y="81" width="3" height="3" fill="#000000" />
<rect x="48" y="81" width="3" height="3" fill="#000000" />
<rect x="51" y="81" width="3" height="3" fill="#A09999" />
<rect x="54" y="81" width="3" height="3" fill="#000000" />
<rect x="33" y="84" width="3" height="3" fill="#000000" />
<rect x="36" y="84" width="3" height="3" fill="#A09999" />
<rect x="39" y="84" width="3" height="3" fill="#D42222" />
<rect x="42" y="84" width="3" height="3" fill="#000000" />
<rect x="48" y="84" width="3" height="3" fill="#000000" />
<rect x="51" y="84" width="3" height="3" fill="#D42222" />
<rect x="54" y="84" width="3" height="3" fill="#A09999" />
<rect x="57" y="84" width="3" height="3" fill="#000000" />
<rect x="30" y="87" width="3" height="3" fill="#000000" />
<rect x="33" y="87" width="3" height="3" fill="#000000" />
<rect x="36" y="87" width="3" height="3" fill="#000000" />
<rect x="39" y="87" width="3" height="3" fill="#000000" />
<rect x="42" y="87" width="3" height="3" fill="#000000" />
<rect x="48" y="87" width="3" height="3" fill="#000000" />
<rect x="51" y="87" width="3" height="3" fill="#000000" />
<rect x="54" y="87" width="3" height="3" fill="#000000" />
<rect x="57" y="87" width="3" height="3" fill="#000000" />
<rect x="60" y="87" width="3" height="3" fill="#000000" />
</svg>