<?xml version="1.0" encoding="UTF-8" ?>
<svg version="1.1" width="80" height="88" xmlns="http://www.w3.org/2000/svg" shape-rendering="crispEdges">
<rect x="32" y="4" width="4" height="4" fill="#000000" />
<rect x="36" y="4" width="4" height="4" fill="#000000" />
<rect x="24" y="8" width="4" height="4" fill="#000000" />
<rect x="28" y="8" width="4" height="4" fill="#000000" />
<rect x="32" y="8" width="4" height="4" fill="#E5BB92" />
<rect x="36" y="8" width="4" height="4" fill="#D8B28D" />
<rect x="40" y="8" width="4" height="4" fill="#000000" />
<rect x="12" y="12" width="4" height="4" fill="#000000" />
<rect x="16" y="12" width="4" height="4" fill="#000000" />
<rect x="20" y="12" width="4" height="4" fill="#000000" />
<rect x="24" y="12" width="4" height="4" fill="#E5BB92" />
<rect x="28" y="12" width="4" height="4" fill="#D8B28D" />
<rect x="32" y="12" width="4" height="4" fill="#D8B28D" />
<rect x="36" y="12" width="4" height="4" fill="#000000" />
<rect x="40" y="12" width="4" height="4" fill="#D8B28D" />
<rect x="44" y="12" width="4" height="4" fill="#000000" />
<rect x="48" y="12" width="4" height="4" fill="#000000" />
<rect x="8" y="16" width="4" height="4" fill="#000000" />
<rect x="12" y="16" width="4" height="4" fill="#E5BB92" />
<rect x="16" y="16" width="4" height="4" fill="#E5BB92" />
<rect x="20" y="16" width="4" height="4" fill="#E5BB92" />
<rect x="24" y="16" width="4" height="4" fill="#D8B28D" />
<rect x="28" y="16" width="4" height="4" fill="#000000" />
<rect x="32" y="16" width="4" height="4" fill="#000000" />
<rect x="36" y="16" width="4" height="4" fill="#D8B28D" />
<rect x="40" y="16" width="4" height="4" fill="#CFA984" />
<rect x="44" y="16" width="4" height="4" fill="#CFA984" />
<rect x="48" y="16" width="4" height="4" fill="#CFA984" />
<rect x="52" y="16" width="4" height="4" fill="#000000" />
<rect x="56" y="16" width="4" height="4" fill="#000000" />
<rect x="4" y="20" width="4" height="4" fill="#000000" />
<rect x="8" y="20" width="4" height="4" fill="#E5BB92" />
<rect x="12" y="20" width="4" height="4" fill="#E5BB92" />
<rect x="16" y="20" width="4" height="4" fill="#E5BB92" />
<rect x="20" y="20" width="4" height="4" fill="#000000" />
<rect x="24" y="20" width="4" height="4" fill="#D8B28D" />
<rect x="28" y="20" width="4" height="4" fill="#D8B28D" />
<rect x="32" y="20" width="4" height="4" fill="#D8B28D" />
<rect x="36" y="20" width="4" height="4" fill="#CFA984" />
<rect x="40" y="20" width="4" height="4" fill="#000000" />
<rect x="44" y="20" width="4" height="4" fill="#000000" />
<rect x="48" y="20" width="4" height="4" fill="#CFA984" />
<rect x="52" y="20" width="4" height="4" fill="#CFA984" />
<rect x="56" y="20" width="4" height="4" fill="#CFA984" />
<rect x="60" y="20" width="4" height="4" fill="#000000" />
<rect x="64" y="20" width="4" height="4" fill="#000000" />
<rect x="4" y="24" width="4" height="4" fill="#000000" />
<rect x="8" y="24" width="4" height="4" fill="#E5BB92" />
<rect x="12" y="24" width="4" height="4" fill="#E5BB92" />
<rect x="16" y="24" width="4" height="4" fill="#000000" />
<rect x="20" y="24" width="4" height="4" fill="#000000" />
<rect x="24" y="24" width="4" height="4" fill="#D8B28D" />
<rect x="28" y="24" width="4" height="4" fill="#D8B28D" />
<rect x="32" y="24" width="4" height="4" fill="#000000" />
<rect x="36" y="24" width="4" height="4" fill="#CFA984" />
<rect x="40" y="24" width="4" height="4" fill="#CFA984" />
<rect x="44" y="24" width="4" height="4" fill="#CFA984" />
<rect x="48" y="24" width="4" height="4" fill="#CFA984" />
<rect x="52" y="24" width="4" height="4" fill="#000000" />
<rect x="56" y="24" width="4" height="4" fill="#CFA984" />
<rect x="60" y="24" width="4" height="4" fill="#CFA984" />
<rect x="64" y="24" width="4" height="4" fill="#CFA984" />
<rect x="68" y="24" width="4" height="4" fill="#000000" />
<rect x="8" y="28" width="4" height="4" fill="#000000" />
<rect x="12" y="28" width="4" height="4" fill="#E5BB92" />
<rect x="16" y="28" width="4" height="4" fill="#D8B28D" />
<rect x="20" y="28" width="4" height="4" fill="#D8B28D" />
<rect x="24" y="28" width="4" height="4" fill="#D8B28D" />
<rect x="28" y="28" width="4" height="4" fill="#D8B28D" />
<rect x="32" y="28" width="4" height="4" fill="#000000" />
<rect x="36" y="28" width="4" height="4" fill="#000000" />
<rect x="40" y="28" width="4" height="4" fill="#CFA984" />
<rect x="44" y="28" width="4" height="4" fill="#CFA984" />
<rect x="48" y="28" width="4" height="4" fill="#CFA984" />
<rect x="52" y="28" width="4" height="4" fill="#CFA984" />
<rect x="56" y="28" width="4" height="4" fill="#000000" />
<rect x="60" y="28" width="4" height="4" fill="#CFA984" />
<rect x="64" y="28" width="4" height="4" fill="#CFA984" />
<rect x="68" y="28" width="4" height="4" fill="#000000" />
<rect x="12" y="32" width="4" height="4" fill="#000000" />
<rect x="16" y="32" width="4" height="4" fill="#000000" />
<rect x="20" y="32" width="4" height="4" fill="#D8B28D" />
<rect x="24" y="32" width="4" height="4" fill="#D8B28D" />
<rect x="28" y="32" width="4" height="4" fill="#000000" />
<rect x="32" y="32" width="4" height="4" fill="#CFA984" />
<rect x="36" y="32" width="4" height="4" fill="#CFA984" />
<rect x="40" y="32" width="4" height="4" fill="#CFA984" />
<rect x="44" y="32" width="4" height="4" fill="#CFA984" />
<rect x="48" y="32" width="4" height="4" fill="#000000" />
<rect x="52" y="32" width="4" height="4" fill="#CFA984" />
<rect x="56" y="32" width="4" height="4" fill="#BE9A77" />
<rect x="60" y="32" width="4" height="4" fill="#CFA984" />
<rect x="64" y="32" width="4" height="4" fill="#CFA984" />
<rect x="68" y="32" width="4" height="4" fill="#CFA984" />
<rect x="72" y="32" width="4" height="4" fill="#000000" />
<rect x="20" y="36" width="4" height="4" fill="#000000" />
<rect x="24" y="36" width="4" height="4" fill="#000000" />
<rect x="28" y="36" width="4" height="4" fill="#CFA984" />
<rect x="32" y="36" width="4" height="4" fill="#CFA984" />
<rect x="36" y="36" width="4" height="4" fill="#000000" />
<rect x="40" y="36" width="4" height="4" fill="#CFA984" />
<rect x="44" y="36" width="4" height="4" fill="#000000" />
<rect x="48" y="36" width="4" height="4" fill="#BE9A77" />
<rect x="52" y="36" width="4" height="4" fill="#BE9A77" />
<rect x="56" y="36" width="4" height="4" fill="#BE9A77" />
<rect x="60" y="36" width="4" height="4" fill="#000000" />
<rect x="64" y="36" width="4" height="4" fill="#BE9A77" />
<rect x="68" y="36" width="4" height="4" fill="#BE9A77" />
<rect x="72" y="36" width="4" height="4" fill="#000000" />
<rect x="28" y="40" width="4" height="4" fill="#000000" />
<rect x="32" y="40" width="4" height="4" fill="#CFA984" />
<rect x="36" y="40" width="4" height="4" fill="#CFA984" />
<rect x="40" y="40" width="4" height="4" fill="#000000" />
<rect x="44" y="40" width="4" height="4" fill="#BE9A77" />
<rect x="48" y="40" width="4" height="4" fill="#BE9A77" />
<rect x="52" y="40" width="4" height="4" fill="#BE9A77" />
<rect x="56" y="40" width="4" height="4" fill="#000000" />
<rect x="60" y="40" width="4" height="4" fill="#BE9A77" />
<rect x="64" y="40" width="4" height="4" fill="#BE9A77" />
<rect x="68" y="40" width="4" height="4" fill="#BE9A77" />
<rect x="72" y="40" width="4" height="4" fill="#000000" />
<rect x="12" y="44" width="4" height="4" fill="#000000" />
<rect x="16" y="44" width="4" height="4" fill="#000000" />
<rect x="20" y="44" width="4" height="4" fill="#000000" />
<rect x="24" y="44" width="4" height="4" fill="#000000" />
<rect x="28" y="44" width="4" height="4" fill="#000000" />
<rect x="32" y="44" width="4" height="4" fill="#000000" />
<rect x="36" y="44" width="4" height="4" fill="#000000" />
<rect x="40" y="44" width="4" height="4" fill="#000000" />
<rect x="44" y="44" width="4" height="4" fill="#000000" />
<rect x="48" y="44" width="4" height="4" fill="#000000" />
<rect x="52" y="44" width="4" height="4" fill="#000000" />
<rect x="56" y="44" width="4" height="4" fill="#000000" />
<rect x="60" y="44" width="4" height="4" fill="#000000" />
<rect x="64" y="44" width="4" height="4" fill="#000000" />
<rect x="68" y="44" width="4" height="4" fill="#000000" />
<rect x="72" y="44" width="4" height="4" fill="#000000" />
<rect x="76" y="44" width="4" height="4" fill="#000000" />
<rect x="12" y="48" width="4" height="4" fill="#000000" />
<rect x="16" y="48" width="4" height="4" fill="#CF0000" />
<rect x="20" y="48" width="4" height="4" fill="#CF0000" />
<rect x="24" y="48" width="4" height="4" fill="#CF0000" />
<rect x="28" y="48" width="4" height="4" fill="#CF0000" />
<rect x="32" y="48" width="4" height="4" fill="#CF0000" />
<rect x="36" y="48" width="4" height="4" fill="#BA0000" />
<rect x="40" y="48" width="4" height="4" fill="#BA0000" />
<rect x="44" y="48" width="4" height="4" fill="#BA0000" />
<rect x="48" y="48" width="4" height="4" fill="#BA0000" />
<rect x="52" y="48" width="4" height="4" fill="#BA0000" />
<rect x="56" y="48" width="4" height="4" fill="#BA0000" />
<rect x="60" y="48" width="4" height="4" fill="#BA0000" />
<rect x="64" y="48" width="4" height="4" fill="#BA0000" />
<rect x="68" y="48" width="4" height="4" fill="#BA0000" />
<rect x="72" y="48" width="4" height="4" fill="#BA0000" />
<rect x="76" y="48" width="4" height="4" fill="#000000" />
<rect x="12" y="52" width="4" height="4" fill="#000000" />
<rect x="16" y="52" width="4" height="4" fill="#BA0000" />
<rect x="20" y="52" width="4" height="4" fill="#BA0000" />
<rect x="24" y="52" width="4" height="4" fill="#BA0000" />
<rect x="28" y="52" width="4" height="4" fill="#BA0000" />
<rect x="32" y="52" width="4" height="4" fill="#BA0000" />
<rect x="36" y="52" width="4" height="4" fill="#BA0000" />
<rect x="40" y="52" width="4" height="4" fill="#BA0000" />
<rect x="44" y="52" width="4" height="4" fill="#BA0000" />
<rect x="48" y="52" width="4" height="4" fill="#BA0000" />
<rect x="52" y="52" width="4" height="4" fill="#BA0000" />
<rect x="56" y="52" width="4" height="4" fill="#BA0000" />
<rect x="60" y="52" width="4" height="4" fill="#BA0000" />
<rect x="64" y="52" width="4" height="4" fill="#BA0000" />
<rect x="68" y="52" width="4" height="4" fill="#BA0000" />
<rect x="72" y="52" width="4" height="4" fill="#BA0000" />
<rect x="76" y="52" width="4" height="4" fill="#000000" />
<rect x="12" y="56" width="4" height="4" fill="#000000" />
<rect x="16" y="56" width="4" height="4" fill="#BA0000" />
<rect x="20" y="56" width="4" height="4" fill="#BA0000" />
<rect x="24" y="56" width="4" height="4" fill="#BA0000" />
<rect x="28" y="56" width="4" height="4" fill="#BA0000" />
<rect x="32" y="56" width="4" height="4" fill="#BA0000" />
<rect x="36" y="56" width="4" height="4" fill="#BA0000" />
<rect x="40" y="56" width="4" height="4" fill="#BA0000" />
<rect x="44" y="56" width="4" height="4" fill="#A90000" />
<rect x="48" y="56" width="4" height="4" fill="#A90000" />
<rect x="52" y="56" width="4" height="4" fill="#A90000" />
<rect x="56" y="56" width="4" height="4" fill="#A90000" />
<rect x="60" y="56" width="4" height="4" fill="#A90000" />
<rect x="64" y="56" width="4" height="4" fill="#A90000" />
<rect x="68" y="56" width="4" height="4" fill="#A90000" />
<rect x="72" y="56" width="4" height="4" fill="#A90000" />
<rect x="76" y="56" width="4" height="4" fill="#000000" />
<rect x="16" y="60" width="4" height="4" fill="#000000" />
<rect x="20" y="60" width="4" height="4" fill="#A90000" />
<rect x="24" y="60" width="4" height="4" fill="#A90000" />
<rect x="28" y="60" width="4" height="4" fill="#A90000" />
<rect x="32" y="60" width="4" height="4" fill="#A90000" />
<rect x="36" y="60" width="4" height="4" fill="#A90000" />
<rect x="40" y="60" width="4" height="4" fill="#A90000" />
<rect x="44" y="60" width="4" height="4" fill="#A90000" />
<rect x="48" y="60" width="4" height="4" fill="#A90000" />
<rect x="52" y="60" width="4" height="4" fill="#A90000" />
<rect x="56" y="60" width="4" height="4" fill="#A90000" />
<rect x="60" y="60" width="4" height="4" fill="#A90000" />
<rect x="64" y="60" width="4" height="4" fill="#A90000" />
<rect x="68" y="60" width="4" height="4" fill="#A90000" />
<rect x="72" y="60" width="4" height="4" fill="#000000" />
<rect x="16" y="64" width="4" height="4" fill="#000000" />
<rect x="20" y="64" width="4" height="4" fill="#A90000" />
<rect x="24" y="64" width="4" height="4" fill="#A90000" />
<rect x="28" y="64" width="4" height="4" fill="#A90000" />
<rect x="32" y="64" width="4" height="4" fill="#A90000" />
<rect x="36" y="64" width="4" height="4" fill="#A90000" />
<rect x="40" y="64" width="4" height="4" fill="#A90000" />
<rect x="44" y="64" width="4" height="4" fill="#A90000" />
<rect x="48" y="64" width="4" height="4" fill="#A90000" />
<rect x="52" y="64" width="4" height="4" fill="#A90000" />
<rect x="56" y="64" width="4" height="4" fill="#A90000" />
<rect x="60" y="64" width="4" height="4" fill="#A90000" />
<rect x="64" y="64" width="4" height="4" fill="#930202" />
<rect x="68" y="64" width="4" height="4" fill="#930202" />
<rect x="72" y="64" width="4" height="4" fill="#000000" />
<rect x="16" y="68" width="4" height="4" fill="#000000" />
<rect x="20" y="68" width="4" height="4" fill="#930202" />
<rect x="24" y="68" width="4" height="4" fill="#000000" />
<rect x="28" y="68" width="4" height="4" fill="#000000" />
<rect x="32" y="68" width="4" height="4" fill="#930202" />
<rect x="36" y="68" width="4" height="4" fill="#930202" />
<rect x="40" y="68" width="4" height="4" fill="#930202" />
<rect x="44" y="68" width="4" height="4" fill="#930202" />
<rect x="48" y="68" width="4" height="4" fill="#930202" />
<rect x="52" y="68" width="4" height="4" fill="#930202" />
<rect x="56" y="68" width="4" height="4" fill="#930202" />
<rect x="60" y="68" width="4" height="4" fill="#000000" />
<rect x="64" y="68" width="4" height="4" fill="#000000" />
<rect x="68" y="68" width="4" height="4" fill="#930202" />
<rect x="72" y="68" width="4" height="4" fill="#000000" />
<rect x="16" y="72" width="4" height="4" fill="#000000" />
<rect x="20" y="72" width="4" height="4" fill="#000000" />
<rect x="24" y="72" width="4" height="4" fill="#63615E" />
<rect x="28" y="72" width="4" height="4" fill="#63615E" />
<rect x="32" y="72" width="4" height="4" fill="#000000" />
<rect x="36" y="72" width="4" height="4" fill="#000000" />
<rect x="40" y="72" width="4" height="4" fill="#000000" />
<rect x="44" y="72" width="4" height="4" fill="#000000" />
<rect x="48" y="72" width="4" height="4" fill="#000000" />
<rect x="52" y="72" width="4" height="4" fill="#000000" />
<rect x="56" y="72" width="4" height="4" fill="#000000" />
<rect x="60" y="72" width="4" height="4" fill="#63615E" />
<rect x="64" y="72" width="4" height="4" fill="#63615E" />
<rect x="68" y="72" width="4" height="4" fill="#000000" />
<rect x="72" y="72" width="4" height="4" fill="#000000" />
<rect x="20" y="76" width="4" height="4" fill="#000000" />
<rect x="24" y="76" width="4" height="4" fill="#63615E" />
<rect x="28" y="76" width="4" height="4" fill="#595652" />
<rect x="32" y="76" width="4" height="4" fill="#000000" />
<rect x="56" y="76" width="4" height="4" fill="#000000" />
<rect x="60" y="76" width="4" height="4" fill="#63615E" />
<rect x="64" y="76" width="4" height="4" fill="#595652" />
<rect x="68" y="76" width="4" height="4" fill="#000000" />
<rect x="24" y="80" width="4" height="4" fill="#000000" />
<rect x="28" y="80" width="4" height="4" fill="#000000" />
<rect x="60" y="80" width="4" height="4" fill="#000000" />
<rect x="64" y="80" width="4" height="4" fill="#000000" />
</svg>