<?xml version="1.0" encoding="UTF-8" ?>
<svg version="1.1" width="128" height="128" xmlns="http://www.w3.org/2000/svg" shape-rendering="crispEdges">
<rect x="24" y="24" width="4" height="4" fill="#000000" />
<rect x="28" y="24" width="4" height="4" fill="#000000" />
<rect x="32" y="24" width="4" height="4" fill="#000000" />
<rect x="36" y="24" width="4" height="4" fill="#000000" />
<rect x="40" y="24" width="4" height="4" fill="#000000" />
<rect x="44" y="24" width="4" height="4" fill="#000000" />
<rect x="48" y="24" width="4" height="4" fill="#000000" />
<rect x="24" y="28" width="4" height="4" fill="#000000" />
<rect x="28" y="28" width="4" height="4" fill="#D95763" />
<rect x="32" y="28" width="4" height="4" fill="#D95763" />
<rect x="36" y="28" width="4" height="4" fill="#E96572" />
<rect x="40" y="28" width="4" height="4" fill="#E96572" />
<rect x="44" y="28" width="4" height="4" fill="#E96572" />
<rect x="48" y="28" width="4" height="4" fill="#000000" />
<rect x="52" y="28" width="4" height="4" fill="#000000" />
<rect x="56" y="28" width="4" height="4" fill="#000000" />
<rect x="60" y="28" width="4" height="4" fill="#000000" />
<rect x="64" y="28" width="4" height="4" fill="#000000" />
<rect x="68" y="28" width="4" height="4" fill="#000000" />
<rect x="24" y="32" width="4" height="4" fill="#000000" />
<rect x="28" y="32" width="4" height="4" fill="#000000" />
<rect x="32" y="32" width="4" height="4" fill="#000000" />
<rect x="36" y="32" width="4" height="4" fill="#000000" />
<rect x="40" y="32" width="4" height="4" fill="#000000" />
<rect x="44" y="32" width="4" height="4" fill="#000000" />
<rect x="48" y="32" width="4" height="4" fill="#D95763" />
<rect x="52" y="32" width="4" height="4" fill="#E96572" />
<rect x="56" y="32" width="4" height="4" fill="#E96572" />
<rect x="60" y="32" width="4" height="4" fill="#E96572" />
<rect x="64" y="32" width="4" height="4" fill="#E96572" />
<rect x="68" y="32" width="4" height="4" fill="#000000" />
<rect x="72" y="32" width="4" height="4" fill="#000000" />
<rect x="76" y="32" width="4" height="4" fill="#000000" />
<rect x="80" y="32" width="4" height="4" fill="#000000" />
<rect x="24" y="36" width="4" height="4" fill="#000000" />
<rect x="28" y="36" width="4" height="4" fill="#2D3EEE" />
<rect x="32" y="36" width="4" height="4" fill="#2D3EEE" />
<rect x="36" y="36" width="4" height="4" fill="#2D3EEE" />
<rect x="40" y="36" width="4" height="4" fill="#2D3EEE" />
<rect x="44" y="36" width="4" height="4" fill="#2D3EEE" />
<rect x="48" y="36" width="4" height="4" fill="#000000" />
<rect x="52" y="36" width="4" height="4" fill="#000000" />
<rect x="56" y="36" width="4" height="4" fill="#000000" />
<rect x="60" y="36" width="4" height="4" fill="#D95763" />
<rect x="64" y="36" width="4" height="4" fill="#E96572" />
<rect x="68" y="36" width="4" height="4" fill="#E96572" />
<rect x="72" y="36" width="4" height="4" fill="#E96572" />
<rect x="76" y="36" width="4" height="4" fill="#E96572" />
<rect x="80" y="36" width="4" height="4" fill="#000000" />
<rect x="84" y="36" width="4" height="4" fill="#000000" />
<rect x="88" y="36" width="4" height="4" fill="#000000" />
<rect x="24" y="40" width="4" height="4" fill="#000000" />
<rect x="28" y="40" width="4" height="4" fill="#000000" />
<rect x="32" y="40" width="4" height="4" fill="#000000" />
<rect x="36" y="40" width="4" height="4" fill="#000000" />
<rect x="40" y="40" width="4" height="4" fill="#000000" />
<rect x="44" y="40" width="4" height="4" fill="#000000" />
<rect x="48" y="40" width="4" height="4" fill="#2D3EEE" />
<rect x="52" y="40" width="4" height="4" fill="#2D3EEE" />
<rect x="56" y="40" width="4" height="4" fill="#2D3EEE" />
<rect x="60" y="40" width="4" height="4" fill="#000000" />
<rect x="64" y="40" width="4" height="4" fill="#000000" />
<rect x="68" y="40" width="4" height="4" fill="#000000" />
<rect x="72" y="40" width="4" height="4" fill="#000000" />
<rect x="76" y="40" width="4" height="4" fill="#000000" />
<rect x="80" y="40" width="4" height="4" fill="#000000" />
<rect x="84" y="40" width="4" height="4" fill="#000000" />
<rect x="88" y="40" width="4" height="4" fill="#000000" />
<rect x="28" y="44" width="4" height="4" fill="#000000" />
<rect x="32" y="44" width="4" height="4" fill="#000000" />
<rect x="36" y="44" width="4" height="4" fill="#6ABE30" />
<rect x="40" y="44" width="4" height="4" fill="#6ABE30" />
<rect x="44" y="44" width="4" height="4" fill="#6ABE30" />
<rect x="48" y="44" width="4" height="4" fill="#000000" />
<rect x="52" y="44" width="4" height="4" fill="#000000" />
<rect x="56" y="44" width="4" height="4" fill="#000000" />
<rect x="60" y="44" width="4" height="4" fill="#2D3EEE" />
<rect x="64" y="44" width="4" height="4" fill="#2D3EEE" />
<rect x="68" y="44" width="4" height="4" fill="#2D3EEE" />
<rect x="72" y="44" width="4" height="4" fill="#000000" />
<rect x="76" y="44" width="4" height="4" fill="#000000" />
<rect x="80" y="44" width="4" height="4" fill="#F26D7A" />
<rect x="84" y="44" width="4" height="4" fill="#F26D7A" />
<rect x="88" y="44" width="4" height="4" fill="#000000" />
<rect x="92" y="44" width="4" height="4" fill="#000000" />
<rect x="32" y="48" width="4" height="4" fill="#000000" />
<rect x="36" y="48" width="4" height="4" fill="#000000" />
<rect x="40" y="48" width="4" height="4" fill="#000000" />
<rect x="44" y="48" width="4" height="4" fill="#000000" />
<rect x="48" y="48" width="4" height="4" fill="#6ABE30" />
<rect x="52" y="48" width="4" height="4" fill="#6ABE30" />
<rect x="56" y="48" width="4" height="4" fill="#6ABE30" />
<rect x="60" y="48" width="4" height="4" fill="#000000" />
<rect x="64" y="48" width="4" height="4" fill="#000000" />
<rect x="68" y="48" width="4" height="4" fill="#000000" />
<rect x="72" y="48" width="4" height="4" fill="#F26D7A" />
<rect x="76" y="48" width="4" height="4" fill="#F26D7A" />
<rect x="80" y="48" width="4" height="4" fill="#F26D7A" />
<rect x="84" y="48" width="4" height="4" fill="#F26D7A" />
<rect x="88" y="48" width="4" height="4" fill="#F26D7A" />
<rect x="92" y="48" width="4" height="4" fill="#000000" />
<rect x="96" y="48" width="4" height="4" fill="#000000" />
<rect x="36" y="52" width="4" height="4" fill="#000000" />
<rect x="40" y="52" width="4" height="4" fill="#000000" />
<rect x="44" y="52" width="4" height="4" fill="#000000" />
<rect x="48" y="52" width="4" height="4" fill="#000000" />
<rect x="52" y="52" width="4" height="4" fill="#000000" />
<rect x="56" y="52" width="4" height="4" fill="#000000" />
<rect x="60" y="52" width="4" height="4" fill="#000000" />
<rect x="64" y="52" width="4" height="4" fill="#E96572" />
<rect x="68" y="52" width="4" height="4" fill="#E96572" />
<rect x="72" y="52" width="4" height="4" fill="#E96572" />
<rect x="76" y="52" width="4" height="4" fill="#E96572" />
<rect x="80" y="52" width="4" height="4" fill="#E96572" />
<rect x="84" y="52" width="4" height="4" fill="#E96572" />
<rect x="88" y="52" width="4" height="4" fill="#E96572" />
<rect x="92" y="52" width="4" height="4" fill="#F26D7A" />
<rect x="96" y="52" width="4" height="4" fill="#000000" />
<rect x="48" y="56" width="4" height="4" fill="#000000" />
<rect x="52" y="56" width="4" height="4" fill="#000000" />
<rect x="56" y="56" width="4" height="4" fill="#E96572" />
<rect x="60" y="56" width="4" height="4" fill="#E96572" />
<rect x="64" y="56" width="4" height="4" fill="#E96572" />
<rect x="68" y="56" width="4" height="4" fill="#E96572" />
<rect x="72" y="56" width="4" height="4" fill="#E96572" />
<rect x="76" y="56" width="4" height="4" fill="#E96572" />
<rect x="80" y="56" width="4" height="4" fill="#E96572" />
<rect x="84" y="56" width="4" height="4" fill="#E96572" />
<rect x="88" y="56" width="4" height="4" fill="#E96572" />
<rect x="92" y="56" width="4" height="4" fill="#E96572" />
<rect x="96" y="56" width="4" height="4" fill="#000000" />
<rect x="100" y="56" width="4" height="4" fill="#000000" />
<rect x="44" y="60" width="4" height="4" fill="#000000" />
<rect x="48" y="60" width="4" height="4" fill="#000000" />
<rect x="52" y="60" width="4" height="4" fill="#E96572" />
<rect x="56" y="60" width="4" height="4" fill="#E96572" />
<rect x="60" y="60" width="4" height="4" fill="#E96572" />
<rect x="64" y="60" width="4" height="4" fill="#E96572" />
<rect x="68" y="60" width="4" height="4" fill="#E96572" />
<rect x="72" y="60" width="4" height="4" fill="#D95763" />
<rect x="76" y="60" width="4" height="4" fill="#D95763" />
<rect x="80" y="60" width="4" height="4" fill="#D95763" />
<rect x="84" y="60" width="4" height="4" fill="#D95763" />
<rect x="88" y="60" width="4" height="4" fill="#E96572" />
<rect x="92" y="60" width="4" height="4" fill="#E96572" />
<rect x="96" y="60" width="4" height="4" fill="#E96572" />
<rect x="100" y="60" width="4" height="4" fill="#000000" />
<rect x="36" y="64" width="4" height="4" fill="#000000" />
<rect x="40" y="64" width="4" height="4" fill="#000000" />
<rect x="44" y="64" width="4" height="4" fill="#000000" />
<rect x="48" y="64" width="4" height="4" fill="#E96572" />
<rect x="52" y="64" width="4" height="4" fill="#E96572" />
<rect x="56" y="64" width="4" height="4" fill="#E96572" />
<rect x="60" y="64" width="4" height="4" fill="#E96572" />
<rect x="64" y="64" width="4" height="4" fill="#D95763" />
<rect x="68" y="64" width="4" height="4" fill="#D95763" />
<rect x="72" y="64" width="4" height="4" fill="#D95763" />
<rect x="76" y="64" width="4" height="4" fill="#D95763" />
<rect x="80" y="64" width="4" height="4" fill="#D95763" />
<rect x="84" y="64" width="4" height="4" fill="#D95763" />
<rect x="88" y="64" width="4" height="4" fill="#D95763" />
<rect x="92" y="64" width="4" height="4" fill="#E96572" />
<rect x="96" y="64" width="4" height="4" fill="#E96572" />
<rect x="100" y="64" width="4" height="4" fill="#000000" />
<rect x="104" y="64" width="4" height="4" fill="#000000" />
<rect x="32" y="68" width="4" height="4" fill="#000000" />
<rect x="36" y="68" width="4" height="4" fill="#000000" />
<rect x="40" y="68" width="4" height="4" fill="#E96572" />
<rect x="44" y="68" width="4" height="4" fill="#E96572" />
<rect x="48" y="68" width="4" height="4" fill="#E96572" />
<rect x="52" y="68" width="4" height="4" fill="#E96572" />
<rect x="56" y="68" width="4" height="4" fill="#D95763" />
<rect x="60" y="68" width="4" height="4" fill="#D95763" />
<rect x="64" y="68" width="4" height="4" fill="#D95763" />
<rect x="68" y="68" width="4" height="4" fill="#D95763" />
<rect x="72" y="68" width="4" height="4" fill="#D95763" />
<rect x="76" y="68" width="4" height="4" fill="#D95763" />
<rect x="80" y="68" width="4" height="4" fill="#D95763" />
<rect x="84" y="68" width="4" height="4" fill="#D95763" />
<rect x="88" y="68" width="4" height="4" fill="#D95763" />
<rect x="92" y="68" width="4" height="4" fill="#D95763" />
<rect x="96" y="68" width="4" height="4" fill="#E96572" />
<rect x="100" y="68" width="4" height="4" fill="#E96572" />
<rect x="104" y="68" width="4" height="4" fill="#000000" />
<rect x="24" y="72" width="4" height="4" fill="#000000" />
<rect x="28" y="72" width="4" height="4" fill="#000000" />
<rect x="32" y="72" width="4" height="4" fill="#000000" />
<rect x="36" y="72" width="4" height="4" fill="#E96572" />
<rect x="40" y="72" width="4" height="4" fill="#E96572" />
<rect x="44" y="72" width="4" height="4" fill="#D95763" />
<rect x="48" y="72" width="4" height="4" fill="#D95763" />
<rect x="52" y="72" width="4" height="4" fill="#D95763" />
<rect x="56" y="72" width="4" height="4" fill="#D95763" />
<rect x="60" y="72" width="4" height="4" fill="#D95763" />
<rect x="64" y="72" width="4" height="4" fill="#D95763" />
<rect x="68" y="72" width="4" height="4" fill="#D95763" />
<rect x="72" y="72" width="4" height="4" fill="#D95763" />
<rect x="76" y="72" width="4" height="4" fill="#D95763" />
<rect x="80" y="72" width="4" height="4" fill="#D95763" />
<rect x="84" y="72" width="4" height="4" fill="#D95763" />
<rect x="88" y="72" width="4" height="4" fill="#D95763" />
<rect x="92" y="72" width="4" height="4" fill="#D95763" />
<rect x="96" y="72" width="4" height="4" fill="#D95763" />
<rect x="100" y="72" width="4" height="4" fill="#E96572" />
<rect x="104" y="72" width="4" height="4" fill="#000000" />
<rect x="24" y="76" width="4" height="4" fill="#000000" />
<rect x="28" y="76" width="4" height="4" fill="#D95763" />
<rect x="32" y="76" width="4" height="4" fill="#D95763" />
<rect x="36" y="76" width="4" height="4" fill="#D95763" />
<rect x="40" y="76" width="4" height="4" fill="#D95763" />
<rect x="44" y="76" width="4" height="4" fill="#D95763" />
<rect x="48" y="76" width="4" height="4" fill="#D95763" />
<rect x="52" y="76" width="4" height="4" fill="#D95763" />
<rect x="56" y="76" width="4" height="4" fill="#D95763" />
<rect x="60" y="76" width="4" height="4" fill="#D95763" />
<rect x="64" y="76" width="4" height="4" fill="#D95763" />
<rect x="68" y="76" width="4" height="4" fill="#D95763" />
<rect x="72" y="76" width="4" height="4" fill="#D95763" />
<rect x="76" y="76" width="4" height="4" fill="#D95763" />
<rect x="80" y="76" width="4" height="4" fill="#D95763" />
<rect x="84" y="76" width="4" height="4" fill="#D95763" />
<rect x="88" y="76" width="4" height="4" fill="#D95763" />
<rect x="92" y="76" width="4" height="4" fill="#D95763" />
<rect x="96" y="76" width="4" height="4" fill="#000000" />
<rect x="100" y="76" width="4" height="4" fill="#000000" />
<rect x="104" y="76" width="4" height="4" fill="#000000" />
<rect x="24" y="80" width="4" height="4" fill="#000000" />
<rect x="28" y="80" width="4" height="4" fill="#000000" />
<rect x="32" y="80" width="4" height="4" fill="#D95763" />
<rect x="36" y="80" width="4" height="4" fill="#D95763" />
<rect x="40" y="80" width="4" height="4" fill="#D95763" />
<rect x="44" y="80" width="4" height="4" fill="#D95763" />
<rect x="48" y="80" width="4" height="4" fill="#D95763" />
<rect x="52" y="80" width="4" height="4" fill="#D95763" />
<rect x="56" y="80" width="4" height="4" fill="#D95763" />
<rect x="60" y="80" width="4" height="4" fill="#D95763" />
<rect x="64" y="80" width="4" height="4" fill="#D95763" />
<rect x="68" y="80" width="4" height="4" fill="#D95763" />
<rect x="72" y="80" width="4" height="4" fill="#D95763" />
<rect x="76" y="80" width="4" height="4" fill="#D95763" />
<rect x="80" y="80" width="4" height="4" fill="#D95763" />
<rect x="84" y="80" width="4" height="4" fill="#D95763" />
<rect x="88" y="80" width="4" height="4" fill="#000000" />
<rect x="92" y="80" width="4" height="4" fill="#000000" />
<rect x="96" y="80" width="4" height="4" fill="#000000" />
<rect x="28" y="84" width="4" height="4" fill="#000000" />
<rect x="32" y="84" width="4" height="4" fill="#D95763" />
<rect x="36" y="84" width="4" height="4" fill="#D95763" />
<rect x="40" y="84" width="4" height="4" fill="#D95763" />
<rect x="44" y="84" width="4" height="4" fill="#D95763" />
<rect x="48" y="84" width="4" height="4" fill="#D95763" />
<rect x="52" y="84" width="4" height="4" fill="#D95763" />
<rect x="56" y="84" width="4" height="4" fill="#D95763" />
<rect x="60" y="84" width="4" height="4" fill="#D95763" />
<rect x="64" y="84" width="4" height="4" fill="#D95763" />
<rect x="68" y="84" width="4" height="4" fill="#D95763" />
<rect x="72" y="84" width="4" height="4" fill="#D95763" />
<rect x="76" y="84" width="4" height="4" fill="#D95763" />
<rect x="80" y="84" width="4" height="4" fill="#000000" />
<rect x="84" y="84" width="4" height="4" fill="#000000" />
<rect x="88" y="84" width="4" height="4" fill="#000000" />
<rect x="28" y="88" width="4" height="4" fill="#000000" />
<rect x="32" y="88" width="4" height="4" fill="#000000" />
<rect x="36" y="88" width="4" height="4" fill="#D95763" />
<rect x="40" y="88" width="4" height="4" fill="#D95763" />
<rect x="44" y="88" width="4" height="4" fill="#D95763" />
<rect x="48" y="88" width="4" height="4" fill="#D95763" />
<rect x="52" y="88" width="4" height="4" fill="#D95763" />
<rect x="56" y="88" width="4" height="4" fill="#D95763" />
<rect x="60" y="88" width="4" height="4" fill="#D95763" />
<rect x="64" y="88" width="4" height="4" fill="#D95763" />
<rect x="68" y="88" width="4" height="4" fill="#D95763" />
<rect x="72" y="88" width="4" height="4" fill="#D95763" />
<rect x="76" y="88" width="4" height="4" fill="#000000" />
<rect x="80" y="88" width="4" height="4" fill="#000000" />
<rect x="32" y="92" width="4" height="4" fill="#000000" />
<rect x="36" y="92" width="4" height="4" fill="#C7545E" />
<rect x="40" y="92" width="4" height="4" fill="#D95763" />
<rect x="44" y="92" width="4" height="4" fill="#D95763" />
<rect x="48" y="92" width="4" height="4" fill="#D95763" />
<rect x="52" y="92" width="4" height="4" fill="#D95763" />
<rect x="56" y="92" width="4" height="4" fill="#D95763" />
<rect x="60" y="92" width="4" height="4" fill="#D95763" />
<rect x="64" y="92" width="4" height="4" fill="#C7545E" />
<rect x="68" y="92" width="4" height="4" fill="#C7545E" />
<rect x="72" y="92" width="4" height="4" fill="#000000" />
<rect x="76" y="92" width="4" height="4" fill="#000000" />
<rect x="32" y="96" width="4" height="4" fill="#000000" />
<rect x="36" y="96" width="4" height="4" fill="#000000" />
<rect x="40" y="96" width="4" height="4" fill="#C7545E" />
<rect x="44" y="96" width="4" height="4" fill="#D95763" />
<rect x="48" y="96" width="4" height="4" fill="#D95763" />
<rect x="52" y="96" width="4" height="4" fill="#D95763" />
<rect x="56" y="96" width="4" height="4" fill="#C7545E" />
<rect x="60" y="96" width="4" height="4" fill="#C7545E" />
<rect x="64" y="96" width="4" height="4" fill="#000000" />
<rect x="68" y="96" width="4" height="4" fill="#000000" />
<rect x="72" y="96" width="4" height="4" fill="#000000" />
<rect x="36" y="100" width="4" height="4" fill="#000000" />
<rect x="40" y="100" width="4" height="4" fill="#C7545E" />
<rect x="44" y="100" width="4" height="4" fill="#C7545E" />
<rect x="48" y="100" width="4" height="4" fill="#C7545E" />
<rect x="52" y="100" width="4" height="4" fill="#C7545E" />
<rect x="56" y="100" width="4" height="4" fill="#000000" />
<rect x="60" y="100" width="4" height="4" fill="#000000" />
<rect x="64" y="100" width="4" height="4" fill="#000000" />
<rect x="36" y="104" width="4" height="4" fill="#000000" />
<rect x="40" y="104" width="4" height="4" fill="#000000" />
<rect x="44" y="104" width="4" height="4" fill="#000000" />
<rect x="48" y="104" width="4" height="4" fill="#C7545E" />
<rect x="52" y="104" width="4" height="4" fill="#000000" />
<rect x="56" y="104" width="4" height="4" fill="#000000" />
<rect x="44" y="108" width="4" height="4" fill="#000000" />
<rect x="48" y="108" width="4" height="4" fill="#000000" />
<rect x="52" y="108" width="4" height="4" fill="#000000" />
</svg>